<svg xmlns="http://www.w3.org/2000/svg" width="164.5" height="161.423">
    <defs>
        <clipPath id="a">
            <path fill="none" d="M0 0h164.5v161.423H0z"/>
        </clipPath>
    </defs>
    <g clip-path="url(#a)">
        <path d="M134.358 237.477s23.109 15.236 24.377 50.8c.423 11.932-5.615 49.919-5.615 49.919l-135.154.53 25.276-101.817 42.522-9.463Z" fill="#fff"/>
        <path d="m82.728 263.88 18.413 74.548-46.024.3Z" fill="#6a6a6a"/>
        <path d="M83.427 247.737a15.553 15.553 0 0 0-.244 2.437l-.382 5.9a141.28 141.28 0 0 0-.26 5.9 13.6 13.6 0 0 0 .057 2.453 15.542 15.542 0 0 0 .244-2.437c.106-1.632.236-3.659.382-5.891s.228-4.393.252-5.907a13.233 13.233 0 0 0-.049-2.455ZM75.09 255.954c0 .039.3.1.813.379a3.843 3.843 0 0 1 1.536 1.656 3.128 3.128 0 0 1-.163 3.154 3.481 3.481 0 0 1-3.526 1.628 3.4 3.4 0 0 1-2.828-2.614 3.129 3.129 0 0 1 .813-3.028 3.929 3.929 0 0 1 1.992-1.109c.536-.118.813-.087.861-.126s-.081 0-.228-.047a2.428 2.428 0 0 0-.666 0 3.87 3.87 0 0 0-2.17 1.065 3.767 3.767 0 0 0-.926 1.4 3.342 3.342 0 0 0-.089 1.924 3.78 3.78 0 0 0 3.148 2.913 3.867 3.867 0 0 0 3.922-1.825 3.362 3.362 0 0 0 .528-1.853 3.7 3.7 0 0 0-.431-1.577 3.789 3.789 0 0 0-1.723-1.672 2.362 2.362 0 0 0-.626-.213c-.156-.063-.229-.071-.237-.055ZM60.358 296.655a7.652 7.652 0 0 1 .813.379 3.834 3.834 0 0 1 1.528 1.656 3.128 3.128 0 0 1-.162 3.155 3.481 3.481 0 0 1-3.526 1.628 3.4 3.4 0 0 1-2.828-2.614 3.136 3.136 0 0 1 .813-3.028 3.912 3.912 0 0 1 1.983-1.112c.544-.118.861-.087.861-.126a.584.584 0 0 0-.228-.047 2.726 2.726 0 0 0-.658 0 3.886 3.886 0 0 0-2.178 1.073 3.656 3.656 0 0 0-.918 1.4 3.212 3.212 0 0 0-.089 1.924 3.762 3.762 0 0 0 3.14 2.931 3.849 3.849 0 0 0 3.921-1.843 3.232 3.232 0 0 0 .528-1.853 3.592 3.592 0 0 0-.431-1.577 3.789 3.789 0 0 0-1.723-1.672 2.57 2.57 0 0 0-.626-.213.834.834 0 0 0-.219-.055ZM108.145 267.097a2.153 2.153 0 0 0 .293.347c.2.221.488.544.886.946a36.223 36.223 0 0 0 3.64 3.154 38.063 38.063 0 0 0 14.464 6.6 29.577 29.577 0 0 0 8.816.694 13.607 13.607 0 0 0 6.777-2.366 9.749 9.749 0 0 0 3.112-3.635 8.044 8.044 0 0 0 .439-1.214 1.534 1.534 0 0 0 .073-.442 16.456 16.456 0 0 1-.666 1.577 9.877 9.877 0 0 1-3.136 3.462 13.607 13.607 0 0 1-6.631 2.248 30.23 30.23 0 0 1-8.695-.726 39.081 39.081 0 0 1-14.374-6.435 42.855 42.855 0 0 1-3.7-3.02l-.951-.891a1.866 1.866 0 0 0-.347-.299Z" fill="#263238"/>
        <path d="M108.145 274.479a2.153 2.153 0 0 0 .292.347c.2.221.488.552.886.954a36.883 36.883 0 0 0 18.1 9.739 29.592 29.592 0 0 0 8.816.7 13.681 13.681 0 0 0 6.777-2.366 9.679 9.679 0 0 0 3.112-3.628 7.787 7.787 0 0 0 .439-1.222 1.481 1.481 0 0 0 .073-.442 16.46 16.46 0 0 1-.666 1.577 9.892 9.892 0 0 1-3.136 3.47 13.607 13.607 0 0 1-6.631 2.24 29.954 29.954 0 0 1-8.695-.726 39.213 39.213 0 0 1-14.374-6.427 42.676 42.676 0 0 1-3.7-3.028l-.951-.891a1.971 1.971 0 0 0-.342-.297Z" fill="#263238"/>
        <path d="M106.951 272.247a1.651 1.651 0 0 0-.057.315c0 .229-.057.544-.106.938-.1.852-.236 2.066-.406 3.62-.341 3.154-.991 7.673-1.284 13.328a60.9 60.9 0 0 0 .2 9.25 38.854 38.854 0 0 0 2.438 10.355 26.67 26.67 0 0 0 6.574 9.818 24.224 24.224 0 0 0 5.168 3.706 21.245 21.245 0 0 0 6.24 2.137 19.529 19.529 0 0 0 12.635-2.271 24.253 24.253 0 0 0 8.719-8.107 31.459 31.459 0 0 0 4.063-9.85 44.455 44.455 0 0 0 1.121-9.211 87.3 87.3 0 0 0-.975-13.351c-.236-1.577-.414-2.76-.536-3.6-.065-.394-.122-.7-.154-.938a1.839 1.839 0 0 0-.073-.315 1.617 1.617 0 0 0 0 .323c0 .237.065.544.114.938.106.852.26 2.066.463 3.612a91.827 91.827 0 0 1 .813 13.328 44.533 44.533 0 0 1-1.154 9.124 31.359 31.359 0 0 1-4.063 9.716 23.815 23.815 0 0 1-8.556 7.981 19.087 19.087 0 0 1-12.359 2.216 20.449 20.449 0 0 1-6.111-2.09 23.821 23.821 0 0 1-5.087-3.635 26.327 26.327 0 0 1-6.5-9.661 38.7 38.7 0 0 1-2.438-10.252 60.619 60.619 0 0 1-.252-9.2c.252-5.639.813-10.181 1.146-13.328.162-1.577.268-2.8.333-3.628 0-.394.049-.71.065-.946s.019-.322.019-.322Z" fill="#263238"/>
        <path d="M149.236 311.307a26 26 0 0 1-4.827 9.9 20.4 20.4 0 0 1-10.523 7.744 19.513 19.513 0 0 1-18.267-3.154c-4.965-4.03-6.72-10.252-7.581-14.471 2.161 2.823 4.461 6.837 7.183 9.164a21.636 21.636 0 0 0 9.913 4.968 23.062 23.062 0 0 0 14.854-3.2c4.169-2.571 6.687-7.176 9.271-10.938M145.759 280.717a13.9 13.9 0 0 1-10.23 7.784c-4.4.789-10.092-.56-12.839-4.566 9.67 3.3 19.282 3.375 23.069-3.218" opacity=".2"/>
        <path d="M66.298 269.085a1.9 1.9 0 0 0 .626 0 10.756 10.756 0 0 0 1.625-.347 15.484 15.484 0 0 0 8.735-6.435 11.407 11.407 0 0 0 .813-1.451c.154-.363.227-.56.2-.576s-.439.741-1.235 1.869a17.645 17.645 0 0 1-3.77 3.825 17.856 17.856 0 0 1-4.81 2.492c-1.331.402-2.192.552-2.184.623Z" fill="#263238"/>
        <path d="M77.544 260.788c-1 3.3-4.77 6.372-8.126 7.452a5.086 5.086 0 0 1-2.056.292 2.408 2.408 0 0 1-1.771-.954 2.53 2.53 0 0 1 .943-3.281 9.628 9.628 0 0 1 3.624-1.254c2.592-.584 4.932.686 7.077-1.427M149.407 254.684c-6.062 5.142-14.626 5.363-22.338 3.154s-14.431-6.364-20.98-10.907c7.142 1.38 13.237 4.542 20.444 5.576 6.882.986 14.041 1.088 20.81-1.143" opacity=".2"/>
        <path d="M33.161 333.672a.475.475 0 0 0 .154.087 4.223 4.223 0 0 0 .479.213 7.369 7.369 0 0 0 1.975.473 11.121 11.121 0 0 0 7.094-1.845c2.7-1.664 5.152-4.464 7.776-7.571a81.742 81.742 0 0 0 7.565-10.836 90.1 90.1 0 0 0 9.174-22 77.207 77.207 0 0 0 1.585-7.042c.13-.789.236-1.459.317-1.932a5.893 5.893 0 0 0 .081-.678 3.506 3.506 0 0 0-.171.662l-.39 1.916a113.269 113.269 0 0 1-1.706 7 94.1 94.1 0 0 1-9.255 21.876 84.354 84.354 0 0 1-7.508 10.8c-2.592 3.107-5.014 5.907-7.63 7.563a11.129 11.129 0 0 1-6.948 1.932 10.086 10.086 0 0 1-2.592-.615Z" fill="#263238"/>
        <path d="M62.381 304.572s-11.993 14.637-20.745 18.225c-2.966 1.222-6.232 2.216-8.256 4.645a5 5 0 0 0-1.26 4.117 2.225 2.225 0 0 0 .162.5c1.259 3.115 7.313 2.681 10.084.71 1.211-.86.5-.308 1.471-1.017 2.804-2.047 17.812-18.915 18.544-27.18Z" opacity=".2"/>
        <path d="m115.328 107.024-7.654-1.475-37.858.434-19.234 4.1-7.337 104.24 85.035 3.856Z" fill="#e0e0e0"/>
        <path d="m60.26 209.528-1.815-47.412 3.015-54.974c-11.961 2.989-28.318 6.309-37.378 16.332a52.432 52.432 0 0 0-13.814 28.225c-2.5 15.772-5.8 45.937-7.866 62.813" fill="#fff"/>
        <path d="m48.235 201.753 58.789 9.266 2.08-35.235 3.25-69.659c17.064.678 36.484 14.361 42.31 25.023 4.063 7.4 7.468 15.993 8.532 24.313 2.04 15.772 5.493 42.8 7.557 59.683a34.161 34.161 0 0 1-9.865 28.3c-8.532 8.541-21.891 11.5-33.9 9.085l-89.513-24.447Z" fill="#fff"/>
        <path d="M54.442 201.124a.763.763 0 0 0-.041-.2q-.073-.213-.171-.568c-.171-.528-.4-1.262-.7-2.2-.634-1.94-1.536-4.732-2.657-8.186l-9.22-27.946-.122.244 9.531-3.825.374-.15-.333-.213-2.2-1.4-7.191-4.558.081.221c3.657-12.318 6.874-23.185 9.19-31 1.13-3.88 2.04-7 2.682-9.179.293-1.065.528-1.893.7-2.484q.106-.386.171-.639a.817.817 0 0 0 .049-.221.494.494 0 0 1-.081.205l-.211.639c-.187.584-.447 1.4-.772 2.46l-2.8 9.14-9.32 30.969-.041.142.13.087 7.183 4.566 2.2 1.4v-.363l-9.523 3.841-.179.071.057.174c3.754 11.19 7.029 20.93 9.369 27.909 1.178 3.454 2.113 6.222 2.771 8.146.325.931.585 1.664.764 2.184.081.229.154.41.2.56a.922.922 0 0 0 .11.174Z" fill="#263238"/>
        <path d="M41.441 152.401a8.192 8.192 0 0 0 2.958 4.314c1.121.623.479 1.451-.447 2.319-1.113 1.041-2.9 1.325-3.722 2.587s-.358 2.7.065 4.03a287.449 287.449 0 0 0 14.789 36.781l-13.643-40.354 9.515-3.809Z" opacity=".2"/>
        <path d="M111.915 202.099a.69.69 0 0 0 .1-.166c.057-.126.138-.284.227-.489l.878-1.924c.764-1.7 1.853-4.156 3.25-7.216l10.962-24.936.065-.142-.138-.095-7.516-5.221v.3l4.981-3.833 2.21-1.688 1.1-.789.268-.213a.924.924 0 0 0 .154-.134.632.632 0 0 0 .114-.221 2.883 2.883 0 0 0 .089-.718 39.539 39.539 0 0 0-.5-5.268c-.5-3.415-1.081-6.7-1.625-9.818-1.154-6.238-2.3-11.829-3.25-16.561s-1.8-8.493-2.381-11.112c-.292-1.293-.528-2.3-.691-3.02l-.187-.789a.925.925 0 0 0-.081-.26 1.426 1.426 0 0 0 .041.276 6.7 6.7 0 0 0 .146.789q.219 1.08.609 3.028c.536 2.65 1.3 6.451 2.243 11.135s2.048 10.307 3.185 16.561c.561 3.115 1.138 6.4 1.625 9.8a39.491 39.491 0 0 1 .5 5.2 2.3 2.3 0 0 1-.073.6c0 .095-.236.237-.406.379l-1.089.836-2.2 1.7-4.973 3.825-.219.173.227.158 7.524 5.2-.065-.244-10.9 24.968c-1.324 3.083-2.381 5.52-3.112 7.263-.349.828-.626 1.475-.813 1.948l-.2.5a1.265 1.265 0 0 0-.073.205Z" fill="#263238"/>
        <path d="m100.108 159.04-59.216 8.842a1.908 1.908 0 0 0-1.637 2.166l12.738 80.347a1.95 1.95 0 0 0 2.233 1.59l59.215-8.842a1.908 1.908 0 0 0 1.637-2.166l-12.737-80.347a1.95 1.95 0 0 0-2.233-1.59Z" fill="#ff725e"/>
        <path d="m100.108 159.04-59.216 8.842a1.908 1.908 0 0 0-1.637 2.166l12.738 80.347a1.95 1.95 0 0 0 2.233 1.59l59.215-8.842a1.908 1.908 0 0 0 1.637-2.166l-12.737-80.347a1.95 1.95 0 0 0-2.233-1.59Z" opacity=".2"/>
        <path d="m98.803 161.062-56.045 8.367 12.412 78.293 56.045-8.367Z" fill="#ebebeb"/>
        <path d="M59.547 168.149a6.909 6.909 0 0 1 5.566-4.6l-.471-3.352a4.658 4.658 0 0 1 3.99-5.284 4.761 4.761 0 0 1 5.452 3.872l.553 3.47 1.2-.158a7.022 7.022 0 0 1 6.622 2.792l.934 1.262-24.377 3.659Zm10.076-6.12a2.5 2.5 0 0 0 2.15-2.842 2.558 2.558 0 0 0-2.929-2.085 2.5 2.5 0 0 0-2.146 2.844 2.566 2.566 0 0 0 2.925 2.082ZM79.77 175.263a71 71 0 0 0 7.638-.931 73.551 73.551 0 0 0 7.565-1.341 70.984 70.984 0 0 0-7.63.931 73.467 73.467 0 0 0-7.573 1.341ZM88.042 176.572a16.2 16.2 0 0 0 3.7-.347 16.871 16.871 0 0 0 3.632-.749 17.355 17.355 0 0 0-3.7.347 16.874 16.874 0 0 0-3.632.749ZM53.435 188.859c0 .11 9.507-1.222 21.184-2.965s21.127-3.265 21.127-3.375-9.5 1.214-21.184 2.965-21.143 3.256-21.127 3.375ZM54.06 192.77c0 .11 9.5-1.214 21.184-2.965s21.127-3.257 21.127-3.367-9.5 1.214-21.184 2.965-21.143 3.256-21.127 3.367ZM54.678 196.69c0 .11 9.507-1.222 21.184-2.965s21.127-3.265 21.127-3.375-9.507 1.214-21.192 2.965-21.135 3.256-21.119 3.375ZM55.303 200.602c0 .11 9.5-1.214 21.184-2.965s21.127-3.257 21.127-3.375-9.5 1.222-21.184 2.973-21.176 3.256-21.127 3.367ZM55.929 204.513c0 .118 9.5-1.214 21.184-2.965s21.127-3.257 21.127-3.367-9.5 1.214-21.184 2.965-21.151 3.256-21.127 3.367ZM56.547 208.433c0 .11 9.507-1.214 21.184-2.965s21.127-3.257 21.127-3.375-9.5 1.214-21.184 2.965-21.143 3.266-21.127 3.375ZM78.259 208.795a3.791 3.791 0 0 0 .813-.047c.544-.055 1.316-.15 2.275-.276a452.28 452.28 0 0 0 14.96-2.24c.959-.158 1.723-.3 2.259-.4a3.164 3.164 0 0 0 .812-.205 3.269 3.269 0 0 0-.812.047c-.544.055-1.316.15-2.275.276-1.926.244-4.575.623-7.492 1.057s-5.558.86-7.467 1.183c-.959.158-1.723.3-2.259.4a3.165 3.165 0 0 0-.814.205ZM50.046 179.356a14.443 14.443 0 0 0 3.421-.308 14.242 14.242 0 0 0 3.356-.71 28.921 28.921 0 0 0-6.777 1.018ZM89.237 215.884a37.929 37.929 0 0 0 5.525-.623 37.358 37.358 0 0 0 5.46-1.025 37.809 37.809 0 0 0-5.525.623 38.056 38.056 0 0 0-5.46 1.025ZM89.432 219.497a39.357 39.357 0 0 0 5.623-.639 37.219 37.219 0 0 0 5.55-1.041 39.181 39.181 0 0 0-5.615.639 37.2 37.2 0 0 0-5.558 1.041ZM57.286 220.127a17.824 17.824 0 0 0 5.306-.789 9.2 9.2 0 0 0-2.69.189 8.531 8.531 0 0 0-2.616.6ZM57.611 223.353a17.825 17.825 0 0 0 5.306-.789 17.828 17.828 0 0 0-5.306.789ZM95.152 222.462a8.742 8.742 0 0 0 2.6-.181 8.254 8.254 0 0 0 2.527-.591 8.366 8.366 0 0 0-2.592.181 8.163 8.163 0 0 0-2.535.591ZM58.018 227.114a4.894 4.894 0 0 0 1.958-.087 4.808 4.808 0 0 0 1.893-.489 4.652 4.652 0 0 0-1.958.079 4.732 4.732 0 0 0-1.893.5ZM101.961 230.069a5.6 5.6 0 0 0-.959 0l-2.7.079-9.637.371h-.219l.049.205a4.469 4.469 0 0 0 1.69 2.547 3.916 3.916 0 0 0 3.25.718 3.755 3.755 0 0 0 2.673-2.248 3.1 3.1 0 0 0-.991-3.407 3.013 3.013 0 0 0-1.284-.662 1.954 1.954 0 0 0-.366-.055 1.678 1.678 0 0 0-.4 0 .559.559 0 0 0-.414.3.82.82 0 0 0-.049.426 6.055 6.055 0 0 0 .886 2.492 6.391 6.391 0 0 0 1.8 1.845 4.145 4.145 0 0 0 2.438.789 2.279 2.279 0 0 0 1.95-1.364 3.229 3.229 0 0 0 .163-2.2 7.969 7.969 0 0 0-2.275-3.154l-.219-.213v.3a5.244 5.244 0 0 0 .618 3.154 5.732 5.732 0 0 0 1.625 1.869 5.137 5.137 0 0 0 1.39.741 2.015 2.015 0 0 0 .536.126 6.606 6.606 0 0 1-1.828-.994 5.771 5.771 0 0 1-1.5-1.845 5.025 5.025 0 0 1-.528-3.028l-.26.079a7.78 7.78 0 0 1 2.153 3.06 2.892 2.892 0 0 1-.163 1.964 1.9 1.9 0 0 1-1.625 1.136 3.662 3.662 0 0 1-2.145-.718 5.738 5.738 0 0 1-2.495-4.054.422.422 0 0 1 0-.213c0-.039 0-.055.114-.071a1.98 1.98 0 0 1 .585.055 2.676 2.676 0 0 1 1.104.57 2.732 2.732 0 0 1 .869 2.965 3.364 3.364 0 0 1-2.292 1.976 3.476 3.476 0 0 1-3-.62 4.07 4.07 0 0 1-1.568-2.318l-.171.213 9.556-.544 2.7-.174a7.815 7.815 0 0 0 .939-.098ZM61.804 235.947a2.245 2.245 0 0 0 .463.473 2.914 2.914 0 0 0 .691.426 1.6 1.6 0 0 0 1.113.055 1.08 1.08 0 0 0 .569-.4 1.383 1.383 0 0 0 .228-.694 12.2 12.2 0 0 0-.114-1.506c-.106-1.072-.227-2.248-.357-3.517l-.349.134 3.1 4.077.772 1.009.5.662-.122-.789c-.333-2.106-.634-4.069-.9-5.8l-.3.158a18.7 18.7 0 0 1 3.34 3.549c.683.954 1.008 1.577 1.048 1.53a1.666 1.666 0 0 0-.187-.449 12.961 12.961 0 0 0-.691-1.191 16.894 16.894 0 0 0-3.25-3.707l-.366-.308.073.473c.244 1.719.536 3.691.813 5.8l.382-.158-.813-1.009c-1.105-1.435-2.153-2.807-3.128-4.061l-.431-.568.081.7c.154 1.27.293 2.445.423 3.509a13.1 13.1 0 0 1 .146 1.459.89.89 0 0 1-.585.891 1.812 1.812 0 0 1-1.625-.363 4.055 4.055 0 0 0-.524-.385Z" fill="#263238"/>
        <path d="M60.374 233.802a77.916 77.916 0 0 0 7.971.166 77.974 77.974 0 0 0 7.963-.237 76.348 76.348 0 0 0-7.963-.174 76.6 76.6 0 0 0-7.971.245ZM57.782 236.255a51.28 51.28 0 0 0 6.371.875 51.785 51.785 0 0 0 6.411.473 48.129 48.129 0 0 0-6.37-.883 48.987 48.987 0 0 0-6.411-.465Z" fill="#263238"/>
        <path d="M128.443 155.059c.1 2.366-.561 4.779-2.592 6.112 2.543 1.2 3.9 4.069 3.982 6.814a19.53 19.53 0 0 1-1.966 7.957c-3.291 7.831-10.311 18.856-15.666 25.527 0 0 2.714-7.1 3.494-8.762 3.527-7.484 6.639-14.984 10.173-22.491a32.5 32.5 0 0 0 1.088-3.087 4.517 4.517 0 0 1-1.056-.7c-1.983-1.577-6.281-4.345-6.281-4.345s8.825-6.782 8.825-7.019" opacity=".2"/>
        <path d="M128.565 171.146c-.114 0 .089 9.109.463 20.331s.764 20.323.878 20.315-.081-9.1-.455-20.331-.764-20.323-.886-20.315ZM114.572 147.228h.813c0-.3-1.178-30.133-2.1-42.01a6.057 6.057 0 0 0-2.137-4.385c-2.535-2.106-6.33-1.83-6.5-1.822l.065.789c.041 0 3.624-.252 5.9 1.632a5.346 5.346 0 0 1 1.861 3.848c.896 11.791 2.058 41.617 2.098 41.948Z" fill="#263238"/>
        <path d="M106.959 197.131h1.438v-1.577h-1.438a5.606 5.606 0 0 1-5.688-5.52v-16.703h-1.625v16.7a7.208 7.208 0 0 0 7.313 7.1Z" fill="#455a64"/>
        <path d="M106.374 196.532a1.734 1.734 0 0 0 1.909 1.522 1.71 1.71 0 0 0 1.568-1.853 1.747 1.747 0 0 0-3.477.331Z" fill="#263238"/>
        <path d="M121.016 197.091h1.438a7.208 7.208 0 0 0 7.313-7.1l-.065-16.7h-1.625l.065 16.7a5.606 5.606 0 0 1-5.688 5.52h-1.438Z" fill="#455a64"/>
        <path d="M123.031 196.484a1.726 1.726 0 0 1-1.9 1.515 1.7 1.7 0 0 1-1.564-1.84 1.725 1.725 0 0 1 1.893-1.52 1.755 1.755 0 0 1 1.179.606 1.654 1.654 0 0 1 .389 1.239ZM130.182 175.216l.2-11.908c.154-9.077-6.679-16.561-15.236-16.711a15.066 15.066 0 0 0-11.092 4.684 16.92 16.92 0 0 0-4.7 11.522l-.2 11.916 2.438.039.2-11.916a14.568 14.568 0 0 1 4.063-9.944 12.526 12.526 0 0 1 9.271-3.943c7.216.118 13 6.53 12.839 14.305l-.2 11.908ZM60.772 147.671c0-.315 3.73-31.316 4.8-41.253l.073-.726c.333-3.375.723-7.192 4.567-8.2l-.211-.789c-4.388 1.151-4.819 5.441-5.168 8.888l-.073.718c-1.064 9.937-4.762 40.937-4.794 41.253Z" fill="#263238"/>
        <path d="M66.527 136.372a8.907 8.907 0 0 0-12.33 0 8.287 8.287 0 0 0-.001 11.968 8.907 8.907 0 0 0 12.332 0 8.287 8.287 0 0 0 0-11.968Z" fill="#263238"/>
        <path d="M56.157 142.354a4.219 4.219 0 1 0 4.209-4.093 4.275 4.275 0 0 0-2.979 1.2 4.024 4.024 0 0 0-1.23 2.894Z" fill="#455a64"/>
        <path d="m111.911 202.1 10.945 26.127L35.55 251.72a28.7 28.7 0 0 1-23.613-3.943c-9.133-6.254-11.376-17.192-10.263-28.02l1.576-11.514Z" fill="#fff"/>
        <path d="M19.413 230.459c.089 0 .276-1.782 1.178-4.535a22.424 22.424 0 0 1 .813-2.216c.309-.789.739-1.577 1.17-2.46a32.694 32.694 0 0 1 3.518-5.165 33.7 33.7 0 0 1 4.518-4.369c.813-.576 1.511-1.151 2.251-1.577a23.7 23.7 0 0 1 2.072-1.238c2.6-1.4 4.38-1.932 4.347-2.019a6.924 6.924 0 0 0-1.243.371 12.574 12.574 0 0 0-1.422.544c-.544.244-1.178.489-1.828.852a21.744 21.744 0 0 0-2.121 1.207c-.756.442-1.5 1.017-2.3 1.577a32.6 32.6 0 0 0-4.607 4.4 31.408 31.408 0 0 0-3.527 5.252c-.431.875-.853 1.7-1.154 2.508a20.349 20.349 0 0 0-.813 2.255 16.086 16.086 0 0 0-.5 1.908 9.489 9.489 0 0 0-.268 1.491 6.5 6.5 0 0 0-.084 1.214Z" fill="#263238"/>
        <path d="M124.811 213.219c6.663.536 11.807 1.128 18.689 1.948 4.3.513 8.759.221 10.165-3.746a13.986 13.986 0 0 0-1.8-12.066c-2.308-3.557-5.932-11.829-25.336-5.52Z" opacity=".2"/>
        <path d="m115.828 212.076-.049-.173-.187-.52-.731-1.987-2.8-7.342-.041-.1h-.106l-29.706 2.606-28.732 2.65-8.7.844-2.365.252-.609.079a.684.684 0 0 0-.211.039h.829l2.373-.173 8.719-.726 28.741-2.524 29.683-2.736-.146-.095 2.925 7.3.813 1.956.219.5c.037.103.069.158.081.15Z" fill="#263238"/>
        <path d="M79.9 239.023c-12.4 3.225-19.941 1.356-31.2-4.621a60.723 60.723 0 0 1-6.631-4.369 23.562 23.562 0 0 1-4.25-4.377c14.5 5.386 26.555 9.463 41.506 13.517" opacity=".2"/>
        <path d="m115.784 211.791-2.836-7.689 6.59-10a7.787 7.787 0 0 1 5.1-3.352l24.247-4.44a3.754 3.754 0 0 1-2.048 4.629c-3.177 1.759-17.47 4.984-17.47 4.984l22.012-.363s.683 3.083-1.812 4.188-18.177 1.664-18.177 1.664l20.079 2.744s.114 3.091-4.477 3.154q-6.782-.079-13.529-.828a.721.721 0 0 0-.813.576.7.7 0 0 0 .544.789l13.35 3.06a1.723 1.723 0 0 1 .13 3.352 2.251 2.251 0 0 1-.74.047c-2.275-.221-15.861-1.893-15.861-1.893l-.707 1.538-13.586-2.145" fill="#fecec9"/>
        <path d="M125.753 209.418a4.383 4.383 0 0 1 .749-1.163 3.322 3.322 0 0 1 1.284-.789 5.141 5.141 0 0 1 1.853-.2c1.349.095 2.568.473 3.478.584a3.263 3.263 0 0 0 1.5 0 12.842 12.842 0 0 0-1.438-.308 22.452 22.452 0 0 0-3.51-.71 5.1 5.1 0 0 0-2.015.252 3.472 3.472 0 0 0-1.365.931 1.637 1.637 0 0 0-.528 1.4ZM123.559 203.559c.041 0 .065-.213.244-.552a2.757 2.757 0 0 1 1.154-1.1c1.227-.694 3.3-.465 5.477-.323s4.177.457 5.615.639a13.939 13.939 0 0 0 2.34.229 12.146 12.146 0 0 0-2.291-.513q-2.789-.532-5.623-.789a31.23 31.23 0 0 0-3.137-.118 5.111 5.111 0 0 0-2.527.6 2.643 2.643 0 0 0-1.154 1.293 1.014 1.014 0 0 0-.1.639ZM121.886 200.151a3.763 3.763 0 0 1 .512-1.782 4.114 4.114 0 0 1 1.463-1.38 6.648 6.648 0 0 1 2.438-.694c1.82-.166 3.527 0 4.77-.095a4.363 4.363 0 0 0 1.942-.457c0-.063-.748.15-1.958.173a43.815 43.815 0 0 0-4.8 0 6.242 6.242 0 0 0-2.576.789 4.122 4.122 0 0 0-1.528 1.577 2.766 2.766 0 0 0-.366 1.4 1.251 1.251 0 0 0 .103.469Z" fill="#aa6550"/>
        <path d="M43.172 200.128a7.058 7.058 0 0 0-.122-1.278c-.106-.789-.309-2-.593-3.454-.561-2.9-1.552-6.869-2.6-11.246a98.586 98.586 0 0 1-2.121-11.309c-.1-.733-.138-1.4-.2-1.979s-.089-1.08-.106-1.5a6.551 6.551 0 0 0-.114-1.278 7.622 7.622 0 0 0-.049 1.285v1.506a16.736 16.736 0 0 0 .138 1.987 81.275 81.275 0 0 0 2 11.38c1.056 4.385 2.088 8.328 2.722 11.214.317 1.435.569 2.61.723 3.415a7.746 7.746 0 0 0 .317 1.254ZM34.746 251.862a1.67 1.67 0 0 0 .479-.079l1.349-.292 4.94-1.183c4.169-1.017 9.913-2.492 16.251-4.2s12.018-3.336 16.121-4.558l4.875-1.467 1.316-.426a1.875 1.875 0 0 0 .369-.161 1.807 1.807 0 0 0-.471.095l-1.341.347-4.875 1.349-16.154 4.44-16.159 4.305-4.875 1.3-1.333.371a2.486 2.486 0 0 0-.492.159ZM118.391 23.123c-1.788-5.355-10.945-10.189-15.967-13-7.516-4.188-14.48-3.352-18.77.379-7.752-6.309-17.966-12.381-27.757-9.9S38.151 12.818 39.938 22.494c1.048 5.7 5.119 10.812 4.875 16.561-.163 3.943-2.316 7.508-4.063 11.088s-3.031 7.744-1.5 11.4c1.422 3.4 4.973 5.52 6.882 8.675 1.56 2.587 1.918 5.662 2.917 8.493C52.738 89.2 65.495 95.083 76.758 93.237s20.647-10.071 26-19.881 7.077-21.072 7.7-32.136" fill="#263238"/>
        <path d="m110.095 30.512-2.251 87.458c-.813 10.023-10.328 17.35-21.379 16.419-11.157-.931-19.68-9.9-19.038-20.039.674-10.638 1.178-21.86 1.178-21.86s-13.968-3.154-15.707-21.23c-.886-9.258.658-24.447 2.275-36.481a17.839 17.839 0 0 1 7.342-12.138 18.911 18.911 0 0 1 14.11-3.255" fill="#fecec9"/>
        <path d="M59.318 47.704a2.425 2.425 0 0 0 3.824 2.027 2.178 2.178 0 0 0 .872-1.483 2.42 2.42 0 0 0-3.825-2.029 2.186 2.186 0 0 0-.871 1.485Z" fill="#263238"/>
        <path d="M56.969 45.37c.276.315 2.153-.86 4.7-.694s4.323 1.514 4.615 1.23c.146-.126-.114-.678-.886-1.309a6.618 6.618 0 0 0-3.681-1.356 6.422 6.422 0 0 0-3.754.923c-.823.54-1.124 1.056-.994 1.206ZM83.695 50.18a2.42 2.42 0 0 0 3.825 2.029 2.187 2.187 0 0 0 .872-1.485 2.42 2.42 0 0 0-3.825-2.029 2.187 2.187 0 0 0-.872 1.485ZM81.94 47.397c.276.315 2.153-.86 4.7-.694s4.323 1.514 4.615 1.23c.146-.126-.114-.678-.894-1.309a6.617 6.617 0 0 0-3.673-1.356 6.421 6.421 0 0 0-3.754.923c-.864.535-1.124 1.056-.994 1.206ZM71.506 65.117a18.235 18.235 0 0 0-4.063-.978c-.642-.1-1.251-.268-1.333-.71a3.127 3.127 0 0 1 .561-1.837c.707-1.49 1.455-3.044 2.235-4.676 3.12-6.672 5.428-12.168 5.152-12.287s-3.031 5.189-6.159 11.829c-.748 1.64-1.471 3.21-2.153 4.732a3.516 3.516 0 0 0-.5 2.453 1.6 1.6 0 0 0 1.008.986 4.171 4.171 0 0 0 1.089.213c2.538.306 4.163.417 4.163.275Z" fill="#263238"/>
        <path d="M68.597 92.458a48.2 48.2 0 0 0 25.108-4.842s-6.98 12.042-25.311 9.211Z" fill="#f7c0bb"/>
        <path d="M81.923 37.681c.211.686 2.771.528 5.729 1.065s5.322 1.475 5.761.9c.2-.276-.187-.938-1.113-1.648a9.908 9.908 0 0 0-4.193-1.727 10.137 10.137 0 0 0-4.558.229c-1.122.361-1.707.858-1.626 1.181ZM58.383 38.28c.406.591 2.2.118 4.307.221s3.868.623 4.315.063c.2-.276 0-.852-.813-1.435a6.4 6.4 0 0 0-6.947-.221c-.74.528-1.041 1.088-.862 1.372Z" fill="#263238"/>
        <path d="M75.439 69.762a7.9 7.9 0 0 0-4.672 1.577 2.878 2.878 0 0 0-1.2 1.151 2.383 2.383 0 0 0 .252 2.145 4.48 4.48 0 0 0 4.217 2.184 4.024 4.024 0 0 0 3.535-3.036 3.672 3.672 0 0 0-2.129-4.038" fill="#aa6550"/>
        <path d="M68.686 73.887c0 .189.634.473 1.747.41a9.666 9.666 0 0 0 3.984-1.259 11 11 0 0 0 3.193-2.595c.658-.789.861-1.483.691-1.577-.333-.213-2.007 1.49-4.64 2.894a20.433 20.433 0 0 1-3.421 1.522c-.912.297-1.529.4-1.554.605Z" fill="#263238"/>
        <ellipse cx=".674" cy=".655" rx=".674" ry=".655" transform="translate(80.566 57.183)" fill="#aa6550"/>
        <path d="M61.471 54.624a.675.675 0 1 0 .674-.655.665.665 0 0 0-.674.655ZM57.741 56.332a.656.656 0 0 0 .316.633.7.7 0 0 0 .725 0 .656.656 0 0 0 .316-.633.685.685 0 0 0-1.357 0ZM56.612 53.596a.675.675 0 1 0 .674-.655.665.665 0 0 0-.674.655ZM83.654 60.733a.662.662 0 0 0 .416.618.7.7 0 0 0 .747-.139.648.648 0 0 0 .152-.723.683.683 0 0 0-.631-.411.673.673 0 0 0-.683.655ZM86.189 58.114a.675.675 0 1 0 .674-.655.665.665 0 0 0-.674.655Z" fill="#aa6550"/>
        <path d="M75.138 50.18a17.592 17.592 0 0 1 .447-2.76 11.323 11.323 0 0 1 4.274-6.175 11.608 11.608 0 0 1 4.879-2.082 11.937 11.937 0 0 1 6.062.5 11.1 11.1 0 0 1 5.347 17.121 11.654 11.654 0 0 1-5.347 3.943 11.937 11.937 0 0 1-6.062.5 11.608 11.608 0 0 1-4.875-2.082 11.34 11.34 0 0 1-4.274-6.167 17.891 17.891 0 0 1-.447-2.76.459.459 0 0 0 0 .181v.544a5.456 5.456 0 0 0 .073.883 7.518 7.518 0 0 0 .219 1.183 10.569 10.569 0 0 0 1.268 3.076 12 12 0 0 0 14.236 5 11.491 11.491 0 0 0 3.023-1.577 10.973 10.973 0 0 0 2.527-2.453 11.227 11.227 0 0 0 0-13.7 10.974 10.974 0 0 0-2.527-2.453 11.491 11.491 0 0 0-3.023-1.577 12.247 12.247 0 0 0-6.257-.473 11.876 11.876 0 0 0-7.979 5.473 10.653 10.653 0 0 0-1.268 3.076 7.441 7.441 0 0 0-.219 1.191 5.307 5.307 0 0 0-.073.875v.544a.489.489 0 0 0-.004.169Z" fill="#fff"/>
        <path d="M70.044 46.734a9.506 9.506 0 0 1 2.779-.315 9.872 9.872 0 0 1 2.657.867 2.026 2.026 0 0 0-.626-.6 4.616 4.616 0 0 0-1.983-.678 4.5 4.5 0 0 0-2.1.268c-.5.198-.752.411-.727.458Z" fill="#fff"/>
        <path d="M77.47 16.83c1.625 14.25 12.546 27.081 26.636 31.4-4.542 6.356-1.682 18.454-1.8 28.548-.114 9.385-.106 12.066 6.159 16.853 5.176 1.207 8.126-12.555 12.01-16.4s7.533-8.588 7.248-13.935c-.138-2.508-1.146-4.905-1.284-7.405-.162-2.776.756-5.52 1.259-8.225 2.243-12.105-4.193-25.125-15.089-31.458s-25.368-5.907-36.151.568" fill="#263238"/>
        <path d="M108.567 75.417a34.209 34.209 0 0 1 6.817-12.571l-.236.489a16.125 16.125 0 0 1 29.79 1.47 15.208 15.208 0 0 1-5.226 16.841 3.683 3.683 0 0 1 4.063 2.91 6.6 6.6 0 0 1-1.373 5.142c-3.811 5.41-12.449 6.837-17.876 2.957-4.307 2.831-10.669 1.183-13.862-2.8s-3.567-9.596-2.097-14.438Z" fill="#263238"/>
        <path d="M126.013 54.542a3.9 3.9 0 0 0 .463-.5 5.193 5.193 0 0 0 .813-1.743 10.134 10.134 0 0 0-1.073-6.94 13.712 13.712 0 0 0-2.942-4 27.372 27.372 0 0 0-4.42-3.651 23.465 23.465 0 0 0-5.745-2.792c-2.1-.7-4.339-1.246-6.614-1.8s-4.5-1.1-6.582-1.806a41.132 41.132 0 0 1-5.826-2.46 42.793 42.793 0 0 1-13.708-11.159 22.794 22.794 0 0 1-1.194-1.577 3.638 3.638 0 0 0-.431-.52 4.776 4.776 0 0 0 .358.568c.252.371.618.915 1.138 1.577a39.6 39.6 0 0 0 4.875 5.284 42.832 42.832 0 0 0 8.808 6.12 41.447 41.447 0 0 0 5.875 2.5c2.1.718 4.339 1.27 6.614 1.83s4.5 1.088 6.59 1.774a23.551 23.551 0 0 1 5.687 2.718 28.325 28.325 0 0 1 4.388 3.58 13.571 13.571 0 0 1 2.86 3.951 10.067 10.067 0 0 1 1.178 6.774 6.115 6.115 0 0 1-1.112 2.272Z" fill="#455a64"/>
        <path d="M78.771 15.631a4.276 4.276 0 0 0 .382.45c.26.292.658.7 1.17 1.23a51.09 51.09 0 0 0 4.689 4.14 33.008 33.008 0 0 0 8.061 4.732 31.8 31.8 0 0 0 5.379 1.412c1.893.371 3.868.655 5.883.954a67.153 67.153 0 0 1 11.205 2.279 24.853 24.853 0 0 1 8.126 4.361 15.654 15.654 0 0 1 3.917 4.732 14.99 14.99 0 0 1 .674 1.53 2.544 2.544 0 0 0 .236.536 4.049 4.049 0 0 0-.154-.56 11.037 11.037 0 0 0-.609-1.577 15.112 15.112 0 0 0-3.868-4.874 24.581 24.581 0 0 0-8.183-4.5 66.044 66.044 0 0 0-11.262-2.366c-2.023-.292-3.99-.584-5.867-.938a32.02 32.02 0 0 1-5.322-1.372 33.55 33.55 0 0 1-8.012-4.6 58.584 58.584 0 0 1-4.77-4.014l-1.227-1.167a2.967 2.967 0 0 0-.448-.388Z" fill="#455a64"/>
        <path d="M58.14.032c0 .087 1.585.142 4.063.789a19.443 19.443 0 0 1 1.983.615c.707.229 1.422.568 2.194.9a24.5 24.5 0 0 1 8.467 6.53c.5.655 1.008 1.254 1.4 1.877a17.381 17.381 0 0 1 1.064 1.727c1.194 2.177 1.625 3.675 1.69 3.643a4.973 4.973 0 0 0-.276-1.041 8.822 8.822 0 0 0-.439-1.2 14.35 14.35 0 0 0-.715-1.577 15.381 15.381 0 0 0-1.032-1.782c-.382-.631-.878-1.254-1.381-1.924a23.635 23.635 0 0 0-8.613-6.632 21.576 21.576 0 0 0-2.243-.875 21.065 21.065 0 0 0-3.722-.9 9.2 9.2 0 0 0-1.3-.15 5.023 5.023 0 0 0-1.14 0ZM45.049 68.122s0-.055-.122-.158l-.382-.434c-.341-.386-.853-.946-1.43-1.727a9.592 9.592 0 0 1-1.625-3.068 5.363 5.363 0 0 1-.171-2.121 5.947 5.947 0 0 1 .813-2.248 40.978 40.978 0 0 1 3.632-4.353 25.088 25.088 0 0 0 5.5-12.46 50.2 50.2 0 0 0 .2-7.689 25.989 25.989 0 0 1 .723-7.563 15.712 15.712 0 0 1 8.808-9.826 15.139 15.139 0 0 1 5.558-1.246 16.607 16.607 0 0 1 10.012 2.86l.488.331c.106.071.162.11.171.1a11.611 11.611 0 0 0-2.527-1.719 16.653 16.653 0 0 0-8.126-1.869 15.552 15.552 0 0 0-5.688 1.222 16 16 0 0 0-9.068 10.039 26.349 26.349 0 0 0-.75 7.679 50.379 50.379 0 0 1-.187 7.634 24.764 24.764 0 0 1-5.379 12.295 39.4 39.4 0 0 0-3.624 4.424 6.083 6.083 0 0 0-.81 2.364 5.51 5.51 0 0 0 .211 2.216 9.473 9.473 0 0 0 1.731 3.1 19.652 19.652 0 0 0 1.5 1.688l.423.41a.7.7 0 0 0 .122.118Z" fill="#455a64"/>
        <path d="M46.934 47.397a17.734 17.734 0 0 1 .447-2.76 11.323 11.323 0 0 1 4.274-6.175 11.876 11.876 0 0 1 10.937-1.579 11.653 11.653 0 0 1 5.347 3.943 10.887 10.887 0 0 1 0 13.217 10.6 10.6 0 0 1-2.438 2.366 11.1 11.1 0 0 1-2.909 1.522 11.938 11.938 0 0 1-9.37-.615 11.344 11.344 0 0 1-5.841-7.137 17.741 17.741 0 0 1-.447-2.76.489.489 0 0 0 0 .189v.536a5.365 5.365 0 0 0 .073.884 7.761 7.761 0 0 0 .219 1.19 10.651 10.651 0 0 0 1.268 3.076 11.653 11.653 0 0 0 2.982 3.289 12.124 12.124 0 0 0 11.254 1.7 11.486 11.486 0 0 0 5.55-17.728 10.973 10.973 0 0 0-2.527-2.453 11.492 11.492 0 0 0-3.023-1.577 12.255 12.255 0 0 0-6.257-.481 11.84 11.84 0 0 0-7.979 5.52 10.531 10.531 0 0 0-1.268 3.068 7.758 7.758 0 0 0-.219 1.191 5.359 5.359 0 0 0-.073.883v.544a.456.456 0 0 0 0 .142Z" fill="#fff"/>
        <path d="M108.583 93.925a1.815 1.815 0 0 0 .4-.26c.252-.181.609-.457 1.081-.789a33.386 33.386 0 0 0 3.689-3.336 12.829 12.829 0 0 0 3.478-6.4 29.7 29.7 0 0 0 .2-4.29 7.262 7.262 0 0 1 1.268-4.227 26.27 26.27 0 0 1 3.177-3.344 12.577 12.577 0 0 0 2.616-3.494 15.162 15.162 0 0 0 1.265-3.709 14.382 14.382 0 0 0 .333-3.383 20.326 20.326 0 0 0-.349-2.768 9.11 9.11 0 0 1-.049-2.074c.138-1.136.366-1.743.325-1.759a2.236 2.236 0 0 0-.179.434 8.894 8.894 0 0 0-.309 1.3 8.617 8.617 0 0 0 0 2.121c.073.789.268 1.735.293 2.752a15.91 15.91 0 0 1-1.625 6.916 12.252 12.252 0 0 1-2.56 3.375 25.8 25.8 0 0 0-3.25 3.391 6.769 6.769 0 0 0-1.032 2.169 10.146 10.146 0 0 0-.3 2.279 30.974 30.974 0 0 1-.171 4.243 12.707 12.707 0 0 1-3.307 6.309 37.322 37.322 0 0 1-3.583 3.4l-1.105.82a2.258 2.258 0 0 0-.306.324Z" fill="#455a64"/>
        <path d="M117.823 75.558a1.231 1.231 0 0 0 0 .323 5.4 5.4 0 0 0 .065.923 14.364 14.364 0 0 0 .813 3.32 16.754 16.754 0 0 0 18.413 10.7 15.711 15.711 0 0 0 3.388-.891c.39-.142.674-.3.869-.386s.293-.15.284-.166a24.616 24.616 0 0 1-4.583 1.159 18.111 18.111 0 0 1-5.111-.087 16.3 16.3 0 0 1-10.5-6.1 16.9 16.9 0 0 1-2.486-4.329 23.682 23.682 0 0 1-1.152-4.466Z" fill="#455a64"/>
        <path d="M120.951 71.852a4.512 4.512 0 0 0 .236 1.08 15.349 15.349 0 0 0 1.146 2.8 18.416 18.416 0 0 0 6.923 7.2 20.646 20.646 0 0 0 9.751 2.776 19.248 19.248 0 0 0 3.1-.158 5.247 5.247 0 0 0 1.113-.221q-2.1.146-4.2.087a21.283 21.283 0 0 1-9.548-2.839 18.962 18.962 0 0 1-6.874-6.987 30.491 30.491 0 0 1-1.641-3.738ZM144.718 63.997a3.089 3.089 0 0 0-.731-.41 7.046 7.046 0 0 0-.9-.394 11.693 11.693 0 0 0-1.243-.426 17.525 17.525 0 0 0-3.356-.631 20.291 20.291 0 0 0-4.185.079 20.52 20.52 0 0 0-4.063.986 17.129 17.129 0 0 0-3.055 1.5 10.743 10.743 0 0 0-1.064.741 5.977 5.977 0 0 0-.756.623 3.434 3.434 0 0 0-.577.6c.057.063.91-.789 2.56-1.719a18.592 18.592 0 0 1 3.031-1.388 22.538 22.538 0 0 1 3.982-.931 22.074 22.074 0 0 1 4.063-.118 19.1 19.1 0 0 1 3.307.544c1.882.471 2.906 1.015 2.987.944Z" fill="#455a64"/>
        <path d="M126.014 62.538c.073.087 5.2-4.14 11.441-9.463s11.246-9.653 11.173-9.739-5.2 4.148-11.449 9.463-11.23 9.661-11.165 9.739Z" fill="#ff725e"/>
        <path d="M102.603 53.903a4.909 4.909 0 0 0-1.674-1.83 5 5 0 0 0-2.21-1.183 14.82 14.82 0 0 0 1.95 1.5 16.008 16.008 0 0 0 1.934 1.514Z" fill="#fff"/>
        <path d="M125.42 58.343a.97.97 0 0 0 .106-.158c.073-.134.162-.292.276-.481a6.853 6.853 0 0 0 .634-2.019 9.884 9.884 0 0 0-2.145-7.334 11.76 11.76 0 0 0-1.812-1.9 14.509 14.509 0 0 0-2.389-1.577 21.5 21.5 0 0 0-6-2c-4.4-.891-9.345-.678-14.382-1.4a22.634 22.634 0 0 1-7.078-2.121 21.055 21.055 0 0 1-5.428-4.1 32.333 32.333 0 0 1-6.289-9.558c-1.333-2.989-2.17-5.52-2.779-7.224l-.691-2-.187-.513a1.047 1.047 0 0 0-.073-.174v.177l.146.528.674 2.05a71.549 71.549 0 0 0 2.657 7.287 32.1 32.1 0 0 0 6.281 9.708 21.238 21.238 0 0 0 5.542 4.164 22.772 22.772 0 0 0 7.183 2.177c5.1.741 10.027.5 14.374 1.372s8.077 2.626 10.035 5.276a9.829 9.829 0 0 1 2.21 7.1 8.87 8.87 0 0 1-.869 2.721Z" fill="#fafafa"/>
        <path d="M120.265 89.658a11.44 11.44 0 0 0 .975 3.154 14.631 14.631 0 0 0 2.121 3.352 14.156 14.156 0 0 0 4.112 3.36 13.779 13.779 0 0 0 6.289 1.577 12.541 12.541 0 0 0 7.134-2.027 11.606 11.606 0 0 0 4.729-6.49 9.784 9.784 0 0 0 .244-4.266 10.39 10.39 0 0 0-7.736-8.233v.394a16.586 16.586 0 0 0 6.972-2.752 13.1 13.1 0 0 0 4.437-5.165 11.846 11.846 0 0 0 1.081-5.938 9.88 9.88 0 0 0-1.763-4.913 10.45 10.45 0 0 0-3.25-2.918 10.187 10.187 0 0 0-3.08-1.151 8.81 8.81 0 0 0-2.064-.15l-.528.055a.619.619 0 0 0-.179 0 11.068 11.068 0 0 1 2.746.205 10.034 10.034 0 0 1 2.99 1.191 10.232 10.232 0 0 1 3.1 2.886 9.612 9.612 0 0 1 1.666 4.787 11.64 11.64 0 0 1-1.089 5.765 12.808 12.808 0 0 1-4.331 5 16.448 16.448 0 0 1-6.809 2.673l-1.048.158 1.032.237a9.965 9.965 0 0 1 7.411 7.933 9.545 9.545 0 0 1-.228 4.1 11.232 11.232 0 0 1-4.559 6.309 12.215 12.215 0 0 1-6.907 2 13.474 13.474 0 0 1-6.151-1.508 13.969 13.969 0 0 1-4.063-3.241 15.087 15.087 0 0 1-2.161-3.273 17.45 17.45 0 0 1-.9-2.3c-.073-.252-.13-.457-.171-.623ZM125.046 55.551a.759.759 0 0 0 .2-.087l.569-.292a15.072 15.072 0 0 0 2.021-1.348 16.582 16.582 0 0 0 5.217-7.1 16.118 16.118 0 0 0-5.688-18.643 24.086 24.086 0 0 0-7.63-3.628 43.875 43.875 0 0 0-8.41-1.443c-2.73-.252-5.363-.371-7.866-.536a70.988 70.988 0 0 1-7.069-.789 32.935 32.935 0 0 1-5.956-1.577 21.453 21.453 0 0 1-7.492-4.582 17.9 17.9 0 0 1-1.568-1.806l-.374-.5a.843.843 0 0 0-.138-.166 12.15 12.15 0 0 0 1.966 2.579 20.87 20.87 0 0 0 7.524 4.732 32.733 32.733 0 0 0 6 1.632 69.579 69.579 0 0 0 7.1.789c5 .386 10.563.426 16.129 2.027a24.008 24.008 0 0 1 7.5 3.549 15.889 15.889 0 0 1 5.688 18.233 16.954 16.954 0 0 1-7 8.438l-.536.323a.985.985 0 0 0-.187.195ZM34.494 43.919a1.06 1.06 0 0 0 .756.363 2.108 2.108 0 0 0 1.983-1.254 1.813 1.813 0 0 0-.114-1.719 3.275 3.275 0 0 0-1.625-1.333 5.286 5.286 0 0 0-4.965.789 5.2 5.2 0 0 0-1.845 2.311 5.313 5.313 0 0 0-.228 3.154 5.18 5.18 0 0 0 1.8 2.91 6.554 6.554 0 0 0 3.421 1.4 9.133 9.133 0 0 0 7.232-2.76 9.846 9.846 0 0 0 2.316-3.415 7.568 7.568 0 0 0 .406-4.188 18.045 18.045 0 0 0-1.316-3.99 50.741 50.741 0 0 1-1.471-3.754 30.815 30.815 0 0 1-1.625-7.4 21.7 21.7 0 0 1 .423-6.8 17.337 17.337 0 0 1 2.316-5.52 15.819 15.819 0 0 1 6.5-5.757 15.061 15.061 0 0 1 2.267-.789l.618-.15a.746.746 0 0 0 .2-.071h-.211l-.626.11a12.9 12.9 0 0 0-2.324.749 15.731 15.731 0 0 0-6.655 5.757 17.444 17.444 0 0 0-2.431 5.533 21.867 21.867 0 0 0-.471 6.908 30.981 30.981 0 0 0 1.625 7.492c.423 1.262.935 2.524 1.479 3.777a18.369 18.369 0 0 1 1.284 3.943 7.178 7.178 0 0 1-.39 3.943 9.3 9.3 0 0 1-2.218 3.281 8.742 8.742 0 0 1-6.883 2.673 6.218 6.218 0 0 1-3.25-1.309 4.837 4.837 0 0 1-1.706-2.7 4.878 4.878 0 0 1 1.91-5.181 4.993 4.993 0 0 1 4.7-.789 3.038 3.038 0 0 1 1.536 1.214 1.652 1.652 0 0 1 .146 1.577 2.022 2.022 0 0 1-1.828 1.23 1.493 1.493 0 0 1-.736-.235Z" fill="#263238"/>
        <path d="M39.678 222.394c-3.949-1.08-8.044 2.366-12.05 1.475-2.438-.552-4.274-2.666-5.379-4.882s-1.7-4.661-2.868-6.853-3.12-4.2-5.639-4.542c-2.308-.3-5.046.749-6.761-.789-1.325-1.183-1.146-3.375-.089-4.787a11.2 11.2 0 0 1 4.347-3.013 25.182 25.182 0 0 1 5.615-2.161 8.514 8.514 0 0 1 5.875.662c3.38 1.908 4.063 6.238 5.046 9.913a19.578 19.578 0 0 0 3.315 7.184 11.029 11.029 0 0 0 6.7 4.2 7.408 7.408 0 0 1 2.982.741c.853.568 1.186 1.987.3 2.516" opacity=".2"/>
        <path d="m60.26 208.227-14.8-5.007-13.269-20.133a8.844 8.844 0 0 0-5.785-3.8l-23.8-4.361a3.754 3.754 0 0 0 2.04 4.629c3.177 1.759 17.47 4.992 17.47 4.992l-22.012-.363s-.674 3.083 1.82 4.188 18.177 1.656 18.177 1.656L0 192.804s-.114 3.1 4.477 3.154q6.781-.06 13.529-.789a.713.713 0 0 1 .813.576.7.7 0 0 1-.544.789l-13.35 3.06a1.723 1.723 0 0 0-.138 3.352 2.116 2.116 0 0 0 .748.047c2.267-.221 15.861-1.893 15.861-1.893s4.794 16.309 7.9 17.626 9.613 1.68 9.613 1.68l13.814 5.307Z" fill="#fecec9"/>
        <path d="M1.625 184.119a5.445 5.445 0 0 0 1.154.11l3.153.15c2.657.11 6.338.237 10.393.339l5.729.142a12.9 12.9 0 0 1 4.542.631 4.846 4.846 0 0 1 2.332 1.869 7.987 7.987 0 0 1 .463 1.009.88.88 0 0 0 0-.292 3.218 3.218 0 0 0-.293-.789 4.829 4.829 0 0 0-2.365-2.058 12.665 12.665 0 0 0-4.648-.741l-5.688-.173c-4.063-.1-7.744-.181-10.4-.221H2.844a7.53 7.53 0 0 0-1.219.024ZM1.292 192.857a5.11 5.11 0 0 0 1.064-.071l2.877-.355c2.438-.308 5.785-.789 9.483-1.309 1.845-.252 3.608-.576 5.2-.71a7.214 7.214 0 0 1 4.063.71 6.319 6.319 0 0 1 2.1 1.83c.39.536.544.875.577.86a.847.847 0 0 0-.081-.26 4.575 4.575 0 0 0-.357-.694 6.046 6.046 0 0 0-2.1-1.987 7.308 7.308 0 0 0-4.242-.836c-1.625.118-3.388.434-5.241.678-3.7.536-7.045 1.049-9.458 1.435l-2.86.481a5.584 5.584 0 0 0-1.025.228ZM12.468 197.817a16.731 16.731 0 0 0 2.324-.489c1.43-.339 3.4-.844 5.574-1.278a10.03 10.03 0 0 1 1.576-.229 2.933 2.933 0 0 1 1.349.386 4.817 4.817 0 0 1 1.779 1.64 6.291 6.291 0 0 1 .707 2.145 1.3 1.3 0 0 0 .049-.631 4.1 4.1 0 0 0-.488-1.656 4.906 4.906 0 0 0-1.853-1.83 3.453 3.453 0 0 0-1.536-.457 10.567 10.567 0 0 0-1.666.221c-2.21.449-4.16.994-5.566 1.4a12.26 12.26 0 0 0-2.249.778Z" fill="#aa6550"/>
        <path d="m170.16 219.055-44.407-5.3-77.885-12.286-10.051 24.52c29.252 9.842 59.269 18.722 88.716 26.529a33.6 33.6 0 0 0 7.313.6c9.832.037 34.081-3.796 36.314-34.063Z" fill="#fff"/>
        <path d="M37.817 225.987a4.326 4.326 0 0 0 .2-.434c.138-.308.317-.733.561-1.285.479-1.151 1.178-2.807 2.064-4.921l7.385-17.823-.187.1 37.841 6.135c8.938 1.49 17.511 2.46 25.279 3.462 3.892.5 7.581.994 11.018 1.577q2.584.4 4.973.789a41.982 41.982 0 0 1 4.526.962 18.543 18.543 0 0 1 12.115 11.7c.138.4.228.718.284.923a1.811 1.811 0 0 0 .114.315 9.23 9.23 0 0 0-.317-1.262 17.353 17.353 0 0 0-1.487-3.423 18.478 18.478 0 0 0-3.722-4.629 18.879 18.879 0 0 0-6.923-3.9 43.793 43.793 0 0 0-4.558-1c-1.625-.284-3.25-.576-4.973-.852a376.084 376.084 0 0 0-11.018-1.577c-7.776-1.017-16.341-2-25.263-3.494l-37.852-6.047h-.138l-.049.126c-3.023 7.445-5.509 13.58-7.248 17.87l-1.983 4.953c-.219.56-.382.994-.512 1.3a1.327 1.327 0 0 0-.13.435Z" fill="#263238"/>
        <path d="M146.263 251.814a1.934 1.934 0 0 0-.358.071l-1.032.244c-.91.189-2.251.489-4.006.694a45.1 45.1 0 0 1-14.862-.694c-1.544-.315-3.137-.741-4.8-1.2l-5.184-1.419-11.376-3.154a1547.326 1547.326 0 0 1-26.075-7.6c-15.439-4.653-29.626-9.211-40.628-12.894l.1.213c3.039-7.492 5.534-13.619 7.264-17.9.853-2.121 1.511-3.785 1.975-4.937.219-.552.382-.978.5-1.293s.154-.442.154-.442-.073.142-.2.426-.309.733-.544 1.278l-2.056 4.9-7.4 17.854-.065.158.163.055c11.018 3.738 25.19 8.32 40.628 12.981a1377.305 1377.305 0 0 0 26.092 7.579l11.441 3.154 5.192 1.388c1.625.45 3.25.875 4.819 1.183a44.6 44.6 0 0 0 14.951.576 29.059 29.059 0 0 0 5.307-1.221ZM129.052 213.756a5.464 5.464 0 0 0 1.113.166l3.047.292 10.043.954 10.043 1.041 3.047.308a5.215 5.215 0 0 0 1.121.063 6.917 6.917 0 0 0-1.105-.221c-.715-.11-1.747-.26-3.031-.434-2.56-.347-6.1-.789-10.027-1.159s-7.492-.67-10.068-.836c-1.292-.087-2.34-.142-3.063-.174a6.8 6.8 0 0 0-1.121 0Z" fill="#263238"/>
    </g>
</svg>
