<svg xmlns="http://www.w3.org/2000/svg" width="62.286" height="62.824" viewBox="0 0 62.286 62.824">
  <g id="experts" transform="translate(-48.869 -65.684)">
    <g id="freepik--background-simple--inject-37" transform="translate(48.869 68.215)">
      <path id="Path_421" data-name="Path 421" d="M89.234,91.344C76.541,84.41,66.213,73.81,55.144,85.452c-13.22,13.883-3.89,29.78,12.54,36.568,8.88,3.668,26.129.632,32.866-6.031,3.4-3.361,8.464-12.132,6.186-16.9C103.162,91.612,95.513,94.773,89.234,91.344Z" transform="translate(-48.869 -80.259)" fill="#407bff"/>
      <path id="Path_422" data-name="Path 422" d="M89.234,91.344C76.541,84.41,66.213,73.81,55.144,85.452c-13.22,13.883-3.89,29.78,12.54,36.568,8.88,3.668,26.129.632,32.866-6.031,3.4-3.361,8.464-12.132,6.186-16.9C103.162,91.612,95.513,94.773,89.234,91.344Z" transform="translate(-48.869 -80.259)" fill="#fff" opacity="0.9"/>
    </g>
    <g id="freepik--Shadow--inject-37" transform="translate(50.01 124.578)">
      <ellipse id="freepik--path--inject-37" cx="30.572" cy="1.965" rx="30.572" ry="1.965" fill="#f5f5f5"/>
    </g>
    <g id="freepik--character-1--inject-37" transform="translate(58.918 67.43)">
      <ellipse id="Ellipse_13" data-name="Ellipse 13" cx="3.335" cy="3.672" rx="3.335" ry="3.672" transform="translate(5.054)" fill="#263238"/>
      <path id="Path_423" data-name="Path 423" d="M173.892,377.342l-1.153.839-1.85-2.773,1.153-.839Z" transform="translate(-161.699 -322.691)" fill="#ffc3bd"/>
      <path id="Path_424" data-name="Path 424" d="M172.852,390.124l1.261-.915a.093.093,0,0,1,.137.021l.74,1.042a.276.276,0,0,1,.038.2.257.257,0,0,1-.1.166c-.457.321-1.126.767-1.7,1.184-.667.484-.571.821-1.466,1.106-.542.174-.76-.406-.539-.533,1-.583.859-.826,1.4-1.96A.805.805,0,0,1,172.852,390.124Z" transform="translate(-161.909 -334.771)" fill="#263238"/>
      <path id="Path_425" data-name="Path 425" d="M170.89,375.41l.954,1.429L173,376l-.952-1.429Z" transform="translate(-161.699 -322.691)" opacity="0.2"/>
      <path id="Path_426" data-name="Path 426" d="M131.148,131.061a15.652,15.652,0,0,0-5.32-.285,1.527,1.527,0,0,0-1.29,1.215,53.308,53.308,0,0,0-1.012,12.326l7.293.13a67.707,67.707,0,0,1,1.261-11.642,1.512,1.512,0,0,0-.123-1.094A1.277,1.277,0,0,0,131.148,131.061Z" transform="translate(-121.793 -121.138)" fill="#263238"/>
      <path id="Path_427" data-name="Path 427" d="M144.08,138.643l.192.6a.162.162,0,0,0,.123.113l.278.047a.207.207,0,0,0,.145-.031l.528-.347-.539-.543Z" transform="translate(-139.116 -127.588)" fill="#407bff"/>
      <path id="Path_428" data-name="Path 428" d="M140.9,142.489a.578.578,0,0,0-.323-.047,17.063,17.063,0,0,0-1.006,3.222,5.567,5.567,0,0,0,.645,1.826l.646-1.889A27.4,27.4,0,0,1,140.9,142.489Z" transform="translate(-135.317 -130.857)" fill="#407bff"/>
      <path id="Path_429" data-name="Path 429" d="M146.737,109.79c-.295,1.08-.672,3.073-.044,3.863a3.419,3.419,0,0,1-2.546,1.123c-1.184-.05-.9-.931-.542-1.377,1.135-.2,1.189-1.111,1.074-1.979Z" transform="translate(-138.454 -103.879)" fill="#ffc3bd"/>
      <path id="Path_430" data-name="Path 430" d="M151.55,131.058a1.376,1.376,0,0,0-.248-.122.1.1,0,0,0-.12.04,2.811,2.811,0,0,1-2.493,1.269,4.139,4.139,0,0,1,.754,1.215c.593-.257,2.151-1.042,2.159-2.3A.123.123,0,0,0,151.55,131.058Z" transform="translate(-142.999 -121.348)" fill="#fff"/>
      <path id="Path_431" data-name="Path 431" d="M139.821,130.132a.126.126,0,0,0-.016-.11.1.1,0,0,0-.093-.045,1.444,1.444,0,0,0-.2.035.14.14,0,0,0-.043.021,2.129,2.129,0,0,0-.473,2.354,2.831,2.831,0,0,1,1.356-.929A1.153,1.153,0,0,1,139.821,130.132Z" transform="translate(-134.666 -120.561)" fill="#fff"/>
      <path id="Path_432" data-name="Path 432" d="M153.3,113.62l-1.219.965a3.672,3.672,0,0,1,.039.613,1.453,1.453,0,0,0,1.148-.984A1.842,1.842,0,0,0,153.3,113.62Z" transform="translate(-145.855 -107.044)" opacity="0.2"/>
      <path id="Path_433" data-name="Path 433" d="M149.151,89.467c-.435,1.437-.631,2.3-1.465,2.892-1.261.889-2.715-.163-2.671-1.691.038-1.377.743-3.5,2.162-3.774A1.864,1.864,0,0,1,149.151,89.467Z" transform="translate(-139.903 -84.929)" fill="#ffc3bd"/>
      <path id="Path_434" data-name="Path 434" d="M154.149,85.5l-.777-.347a4.844,4.844,0,0,0,.984-1.8c-1.443-.243-3.452-.2-2.619-1.679.561-1,1.22-1,2.439-.54,2,.75,1.734,2.672,1.283,3.767S154.149,85.5,154.149,85.5Z" transform="translate(-145.401 -79.948)" fill="#263238"/>
      <path id="Path_435" data-name="Path 435" d="M163.331,103.155a.039.039,0,0,1-.027-.012,3.7,3.7,0,0,0-1.261-.849.046.046,0,0,1-.025-.057.042.042,0,0,1,.02-.026.036.036,0,0,1,.031,0,3.8,3.8,0,0,1,1.291.868.048.048,0,0,1,0,.063A.041.041,0,0,1,163.331,103.155Z" transform="translate(-154.224 -97.611)" fill="#fff"/>
      <path id="Path_436" data-name="Path 436" d="M151.52,109.277a.871.871,0,0,0,.721-.1.044.044,0,0,0,.011-.05.031.031,0,0,0-.046,0,.827.827,0,0,1-.788.047.033.033,0,0,0-.044.019.038.038,0,0,0,0,.027.034.034,0,0,0,.017.02A1.14,1.14,0,0,0,151.52,109.277Z" transform="translate(-145.257 -103.318)" fill="#263238"/>
      <path id="Path_437" data-name="Path 437" d="M164.485,106.424a1.316,1.316,0,0,1-.918.45c-.453.012-.546-.46-.315-.868.213-.365.706-.812,1.1-.632A.658.658,0,0,1,164.485,106.424Z" transform="translate(-155.163 -100.195)" fill="#ffc3bd"/>
      <path id="Path_438" data-name="Path 438" d="M127.816,224.166a80.423,80.423,0,0,1,1.88-14.816l-5.7-.1s.348,10.915.448,15.487c.1,4.753,7.239,15.548,7.239,15.548l1.954-1.422S127.969,230.131,127.816,224.166Z" transform="translate(-122.202 -186.072)" fill="#407bff"/>
      <path id="Path_439" data-name="Path 439" d="M145.611,231.854c-1.69,2.446-1.091,7.047-.517,10.3a77.369,77.369,0,0,1,1.129-10.7Z" transform="translate(-139.473 -204.418)" opacity="0.2" style="mix-blend-mode: multiply;isolation: isolate"/>
      <path id="Path_440" data-name="Path 440" d="M168.863,376.993l2.323-1.691-.5-.792-2.442,1.712Z" transform="translate(-159.467 -322.642)" fill="#263238"/>
      <path id="Path_441" data-name="Path 441" d="M157.078,99.924c-.03.118-.109.2-.178.184s-.1-.125-.074-.245.109-.2.178-.184S157.106,99.806,157.078,99.924Z" transform="translate(-149.844 -95.521)" fill="#263238"/>
      <path id="Path_442" data-name="Path 442" d="M149.265,98.474c-.028.118-.109.2-.178.184s-.1-.125-.073-.245.109-.2.178-.184S149.3,98.361,149.265,98.474Z" transform="translate(-143.264 -94.323)" fill="#263238"/>
      <path id="Path_443" data-name="Path 443" d="M148.757,100.45a4.2,4.2,0,0,1-.757.776.616.616,0,0,0,.481.191Z" transform="translate(-142.418 -96.16)" fill="#630f0f"/>
      <path id="Path_444" data-name="Path 444" d="M159.285,96.811a.046.046,0,0,0,.033,0,.077.077,0,0,0,.036-.094.621.621,0,0,0-.438-.41.071.071,0,0,0-.076.061.071.071,0,0,0,.009.053.059.059,0,0,0,.042.028h0a.489.489,0,0,1,.344.325A.057.057,0,0,0,159.285,96.811Z" transform="translate(-151.548 -92.737)" fill="#263238"/>
      <path id="Path_445" data-name="Path 445" d="M147.505,94.461a.061.061,0,0,0,.061,0,.5.5,0,0,1,.473-.1.067.067,0,0,0,.087-.042.074.074,0,0,0,0-.053.065.065,0,0,0-.035-.037.615.615,0,0,0-.59.115.072.072,0,0,0-.028.045.077.077,0,0,0,.009.054A.049.049,0,0,0,147.505,94.461Z" transform="translate(-141.974 -90.995)" fill="#263238"/>
      <path id="Path_446" data-name="Path 446" d="M176.765,395.856a.042.042,0,0,0,0-.038.031.031,0,0,0-.032-.019c-.069,0-.673.085-.766.273a.127.127,0,0,0,0,.115h0a.172.172,0,0,0,.129.109c.194.031.5-.259.662-.436Zm-.73.238a1.251,1.251,0,0,1,.613-.21c-.23.231-.426.358-.535.347a.116.116,0,0,1-.085-.073.045.045,0,0,1,0-.045A.03.03,0,0,1,176.035,396.094Z" transform="translate(-165.964 -340.235)" fill="#407bff"/>
      <path id="Path_447" data-name="Path 447" d="M177.43,394.189v-.009a.038.038,0,0,0,0-.036c-.009-.014-.225-.335-.445-.361a.226.226,0,0,0-.18.059h0a.14.14,0,0,0-.055.158c.057.16.473.234.658.2A.031.031,0,0,0,177.43,394.189Zm-.609-.264a.12.12,0,0,1,.024-.028h0a.157.157,0,0,1,.132-.042.717.717,0,0,1,.366.281c-.194.01-.5-.071-.533-.174C176.808,393.965,176.8,393.949,176.821,393.925ZM176.821,393.869Z" transform="translate(-166.629 -338.567)" fill="#407bff"/>
      <path id="Path_448" data-name="Path 448" d="M165.783,385.33l-1.366-.023-.248-3.488,1.364.024Z" transform="translate(-156.039 -328.683)" fill="#ffc3bd"/>
      <path id="Path_449" data-name="Path 449" d="M150.374,400.881l1.485.026a.1.1,0,0,1,.1.106l.052,1.34a.254.254,0,0,1-.24.264c-.535-.021-.7-.068-1.373-.08-.788-.014-1.4.023-2.324,0-.56-.009-.612-.632-.369-.694a6.436,6.436,0,0,0,2.321-.868A.474.474,0,0,1,150.374,400.881Z" transform="translate(-142.053 -344.431)" fill="#263238"/>
      <path id="Path_450" data-name="Path 450" d="M164.17,381.83l.128,1.8,1.365.024-.128-1.8Z" transform="translate(-156.039 -328.691)" opacity="0.2"/>
      <path id="Path_451" data-name="Path 451" d="M144.631,224.269c-.079-6.771.315-12.05-.492-14.684l-4.819-.085s1.693,10.557,2.171,15.1c.5,4.717,1.31,15.819,1.31,15.819l2.2.033S145.529,229.552,144.631,224.269Z" transform="translate(-135.107 -186.278)" fill="#407bff"/>
      <path id="Path_452" data-name="Path 452" d="M158.719,385.506l2.745.049.211-.981-3.056-.1Z" transform="translate(-151.364 -330.872)" fill="#263238"/>
      <path id="Path_453" data-name="Path 453" d="M160.522,399.7a.035.035,0,0,0,.021-.031.034.034,0,0,0-.016-.036c-.06-.033-.594-.328-.76-.22a.125.125,0,0,0-.057.1h0a.212.212,0,0,0,.055.174c.145.144.533.073.752.017Zm-.714-.231a1.181,1.181,0,0,1,.6.184c-.3.064-.522.057-.6-.024a.133.133,0,0,1-.035-.115.042.042,0,0,1,.02-.038Z" transform="translate(-152.28 -343.198)" fill="#407bff"/>
      <path id="Path_454" data-name="Path 454" d="M162.342,397.985h0a.043.043,0,0,0,.021-.031,1.049,1.049,0,0,0-.194-.58.2.2,0,0,0-.175-.057h0a.127.127,0,0,0-.123.1c-.028.174.285.491.446.569a.028.028,0,0,0,.025-.005Zm-.375-.594a.117.117,0,0,1,.033-.009h0a.148.148,0,0,1,.128.042.86.86,0,0,1,.166.464c-.158-.108-.375-.359-.358-.464A.045.045,0,0,1,161.967,397.391Zm.03-.045Z" transform="translate(-154.1 -341.486)" fill="#407bff"/>
      <path id="Path_455" data-name="Path 455" d="M126.593,130.627c-.8,1.1-2.889,2.6-3.442,5.236a12.382,12.382,0,0,1,.211-5.434,6.072,6.072,0,0,0-2.015.118,1.262,1.262,0,0,0-.831.984,49.171,49.171,0,0,0-.782,8.7c-.013,5.512-.424,14.043-.424,14.043a59.819,59.819,0,0,0,9.07-.148c.017-4.213-.779-11.366-.572-13.236.266-2.4.874-7.1,1.175-9.052a1.141,1.141,0,0,0-.7-1.285,3.447,3.447,0,0,0-1.419-.092A.4.4,0,0,0,126.593,130.627Z" transform="translate(-118.252 -120.908)" fill="#407bff"/>
      <path id="Path_456" data-name="Path 456" d="M126.592,130.627c-.8,1.1-2.889,2.6-3.441,5.236a12.382,12.382,0,0,1,.211-5.434,6.072,6.072,0,0,0-2.015.118,1.262,1.262,0,0,0-.831.984,49.171,49.171,0,0,0-.782,8.7c-.013,5.512-.424,14.043-.424,14.043a59.819,59.819,0,0,0,9.07-.148c.017-4.213-.779-11.366-.572-13.236.266-2.406.874-7.1,1.175-9.052a1.129,1.129,0,0,0-.654-1.267,3.465,3.465,0,0,0-1.463-.108.4.4,0,0,0-.273.161Z" transform="translate(-118.252 -120.908)" fill="#fff" opacity="0.7"/>
      <path id="Path_457" data-name="Path 457" d="M141.565,181.295c-.24-5.361.12-16.581.178-17.585h.085c-.058,1-.418,12.215-.178,17.574Z" transform="translate(-136.929 -148.438)" fill="#407bff" opacity="0.5"/>
      <path id="Path_458" data-name="Path 458" d="M117.1,136.149c-.5.969-.985,1.993-1.419,3.005-.218.509-.421,1.019-.6,1.524-.088.252-.167.5-.235.741a4.373,4.373,0,0,0-.136.632v.014a.467.467,0,0,0,0-.075,1.262,1.262,0,0,0-.019-.174,1.194,1.194,0,0,0-.054-.174.993.993,0,0,0-.074-.142.628.628,0,0,0-.2-.21c-.05-.024.013.01.085.024a3.394,3.394,0,0,0,.61.078,13.065,13.065,0,0,0,1.47-.016c.5-.035,1.014-.085,1.523-.146.255-.031.511-.068.765-.106l.382-.057.189-.033.095-.016.046-.009h.014l-.046.01.457,2.314-.052.01h-.129l-.1.012-.2.024-.4.047-.8.085c-.538.056-1.075.1-1.623.132a16.352,16.352,0,0,1-1.684.03,5.36,5.36,0,0,1-.956-.12,2.315,2.315,0,0,1-.659-.255,1.513,1.513,0,0,1-.5-.486,1.476,1.476,0,0,1-.207-.521,1.437,1.437,0,0,1-.03-.288v-.168a6.533,6.533,0,0,1,.189-1.075c.08-.316.169-.615.262-.906.189-.582.391-1.139.6-1.691s.429-1.092.65-1.63.448-1.068.684-1.616Z" transform="translate(-112.6 -124.646)" fill="#407bff"/>
      <g id="Group_93" data-name="Group 93" transform="translate(0 10.274)" opacity="0.7">
        <path id="Path_459" data-name="Path 459" d="M117.1,136.149c-.5.969-.985,1.993-1.419,3.005-.218.509-.421,1.019-.6,1.524-.088.252-.167.5-.235.741a4.373,4.373,0,0,0-.136.632v.014a.467.467,0,0,0,0-.075,1.262,1.262,0,0,0-.019-.174,1.194,1.194,0,0,0-.054-.174.993.993,0,0,0-.074-.142.628.628,0,0,0-.2-.21c-.05-.024.013.01.085.024a3.394,3.394,0,0,0,.61.078,13.065,13.065,0,0,0,1.47-.016c.5-.035,1.014-.085,1.523-.146.255-.031.511-.068.765-.106l.382-.057.189-.033.095-.016.046-.009h.014l-.046.01.457,2.314-.052.01h-.129l-.1.012-.2.024-.4.047-.8.085c-.538.056-1.075.1-1.623.132a16.352,16.352,0,0,1-1.684.03,5.36,5.36,0,0,1-.956-.12,2.315,2.315,0,0,1-.659-.255,1.513,1.513,0,0,1-.5-.486,1.476,1.476,0,0,1-.207-.521,1.437,1.437,0,0,1-.03-.288v-.168a6.533,6.533,0,0,1,.189-1.075c.08-.316.169-.615.262-.906.189-.582.391-1.139.6-1.691s.429-1.092.65-1.63.448-1.068.684-1.616Z" transform="translate(-112.6 -134.92)" fill="#fff"/>
      </g>
      <path id="Path_460" data-name="Path 460" d="M122.88,166.183l-1.03-1.083-.7,1.611s1.031.868,1.5.347Z" transform="translate(-119.802 -149.587)" fill="#7f3e3b"/>
      <path id="Path_461" data-name="Path 461" d="M156,168.925l.946-1.175.817,1.545s-.962.955-1.463.486Z" transform="translate(-149.157 -151.776)" fill="#7f3e3b"/>
      <path id="Path_462" data-name="Path 462" d="M163.436,165.412l.2.6a.594.594,0,0,1-.208.663l-.593.42-.817-1.545.8-.41a.409.409,0,0,1,.364-.017A.473.473,0,0,1,163.436,165.412Z" transform="translate(-154.228 -149.579)" fill="#7f3e3b"/>
      <path id="Path_463" data-name="Path 463" d="M115.631,163.271l-.158.616a.586.586,0,0,0,.259.641l.631.366.7-1.611-.828-.337a.409.409,0,0,0-.369.011A.483.483,0,0,0,115.631,163.271Z" transform="translate(-115.006 -147.775)" fill="#7f3e3b"/>
      <path id="Path_464" data-name="Path 464" d="M136.539,137.26c.057.337.1.637.147.955s.085.628.12.944c.074.632.136,1.267.166,1.922a13.443,13.443,0,0,1-.039,2.049,4.853,4.853,0,0,1-.279,1.215,2.876,2.876,0,0,1-.158.347c-.038.063-.071.122-.117.186l-.033.047a.522.522,0,0,1-.043.057,1.581,1.581,0,0,1-.14.156,1.659,1.659,0,0,1-.473.314,2.377,2.377,0,0,1-.35.125,4.849,4.849,0,0,1-1.045.135c-.315.01-.613,0-.908-.01-.59-.026-1.161-.089-1.734-.151s-1.129-.142-1.689-.229-1.112-.174-1.682-.273l.389-2.33c.519.118,1.063.219,1.6.314s1.074.174,1.608.238,1.067.111,1.586.135c.257.009.512.012.752,0a2.847,2.847,0,0,0,.6-.076c.025,0,.052-.019.044-.019a.438.438,0,0,0-.11.082.582.582,0,0,0-.068.075c-.014.021,0,.01-.011.014h0s.011-.026.021-.056a2.546,2.546,0,0,0,.1-.566,9.526,9.526,0,0,0-.024-1.606c-.049-.564-.125-1.139-.218-1.714-.049-.286-.1-.573-.158-.859s-.12-.58-.183-.839Z" transform="translate(-125.808 -126.58)" fill="#407bff"/>
      <g id="Group_94" data-name="Group 94" transform="translate(2.472 10.68)" opacity="0.7">
        <path id="Path_465" data-name="Path 465" d="M136.539,137.26c.057.337.1.637.147.955s.085.628.12.944c.074.632.136,1.267.166,1.922a13.443,13.443,0,0,1-.039,2.049,4.853,4.853,0,0,1-.279,1.215,2.876,2.876,0,0,1-.158.347c-.038.063-.071.122-.117.186l-.033.047a.522.522,0,0,1-.043.057,1.581,1.581,0,0,1-.14.156,1.659,1.659,0,0,1-.473.314,2.377,2.377,0,0,1-.35.125,4.849,4.849,0,0,1-1.045.135c-.315.01-.613,0-.908-.01-.59-.026-1.161-.089-1.734-.151s-1.129-.142-1.689-.229-1.112-.174-1.682-.273l.389-2.33c.519.118,1.063.219,1.6.314s1.074.174,1.608.238,1.067.111,1.586.135c.257.009.512.012.752,0a2.847,2.847,0,0,0,.6-.076c.025,0,.052-.019.044-.019a.438.438,0,0,0-.11.082.582.582,0,0,0-.068.075c-.014.021,0,.01-.011.014h0s.011-.026.021-.056a2.546,2.546,0,0,0,.1-.566,9.526,9.526,0,0,0-.024-1.606c-.049-.564-.125-1.139-.218-1.714-.049-.286-.1-.573-.158-.859s-.12-.58-.183-.839Z" transform="translate(-128.28 -137.26)" fill="#fff"/>
      </g>
      <path id="Path_466" data-name="Path 466" d="M157.5,208.65l2.365,1.9s.268,2.549-1.061,2.8S157.214,210.487,157.5,208.65Z" transform="translate(-150.333 -185.576)" fill="#407bff"/>
      <path id="Path_467" data-name="Path 467" d="M157.5,208.65l2.365,1.9s.268,2.549-1.061,2.8S157.214,210.487,157.5,208.65Z" transform="translate(-150.333 -185.576)" fill="#fff" opacity="0.5"/>
      <path id="Path_468" data-name="Path 468" d="M120.467,208.65l-.866,1.9s-.276,2.549.112,2.8S120.415,210.487,120.467,208.65Z" transform="translate(-118.417 -185.576)" fill="#407bff"/>
      <path id="Path_469" data-name="Path 469" d="M120.467,208.65l-.866,1.9s-.276,2.549.112,2.8S120.415,210.487,120.467,208.65Z" transform="translate(-118.417 -185.576)" fill="#fff" opacity="0.5"/>
      <path id="Path_470" data-name="Path 470" d="M144.651,94.769a.357.357,0,0,1-.085-.01.409.409,0,0,1-.259-.224,1.313,1.313,0,0,1-.022-.927c.158-.554.55-.939.866-.868a.414.414,0,0,1,.259.224,1.314,1.314,0,0,1,.022.927h0C145.282,94.4,144.948,94.769,144.651,94.769Zm.413-1.991c-.279,0-.6.347-.741.839a1.283,1.283,0,0,0,.013.9.371.371,0,0,0,.233.2c.3.076.662-.3.818-.828h0a1.287,1.287,0,0,0-.02-.892.365.365,0,0,0-.232-.2A.29.29,0,0,0,145.064,92.778ZM145.413,93.889Z" transform="translate(-139.227 -89.781)" fill="#fff"/>
      <path id="Path_471" data-name="Path 471" d="M154.3,96.975a.549.549,0,0,1-.118-.014.657.657,0,0,1-.424-.422,1.353,1.353,0,0,1-.052-.766c.115-.559.517-.936.9-.842a.657.657,0,0,1,.424.422,1.361,1.361,0,0,1,.052.764C154.974,96.619,154.64,96.975,154.3,96.975Zm.183-2.014c-.315,0-.639.347-.738.823a1.314,1.314,0,0,0,.049.738.609.609,0,0,0,.4.4c.355.09.735-.274.847-.809a1.313,1.313,0,0,0-.049-.738.613.613,0,0,0-.4-.4A.468.468,0,0,0,154.484,94.961Z" transform="translate(-147.198 -91.588)" fill="#fff"/>
      <path id="Path_472" data-name="Path 472" d="M151.644,100.281a.036.036,0,0,1-.027-.01.391.391,0,0,0-.334-.125.041.041,0,0,1-.047-.035.044.044,0,0,1,.032-.052.461.461,0,0,1,.4.146.046.046,0,0,1,0,.063.041.041,0,0,1-.025.014Z" transform="translate(-145.143 -95.833)" fill="#fff"/>
      <path id="Path_473" data-name="Path 473" d="M149.824,149.051l-.087-.214c1.343-.653,2.226-1.972,2.089-2.672-.073-.37-.426-.448-.714-.443-1.386.014-1.85,1.524-2.223,2.74-.047.156-.095.306-.14.444l-.2-.08c.044-.137.09-.285.139-.439.374-1.215.886-2.884,2.422-2.9h.017c.681,0,.861.391.907.625C152.191,146.91,151.279,148.335,149.824,149.051Z" transform="translate(-142.882 -133.381)" fill="#263238"/>
      <path id="Path_474" data-name="Path 474" d="M154.207,162.882c-.107.257-.063.529.1.609s.377-.062.482-.319.063-.53-.1-.609S154.312,162.619,154.207,162.882Z" transform="translate(-147.597 -147.471)" fill="#263238"/>
      <path id="Path_475" data-name="Path 475" d="M146.6,162.882c-.107.257-.063.529.1.609s.377-.062.482-.319.065-.53-.1-.609S146.7,162.619,146.6,162.882Z" transform="translate(-141.187 -147.471)" fill="#263238"/>
      <path id="Path_8970" data-name="Path 8970" d="M.589,0a.548.548,0,0,1,.585.519.571.571,0,0,1-.594.528A.548.548,0,0,1,0,.524.571.571,0,0,1,.589,0Z" transform="matrix(0.094, -0.996, 0.996, 0.094, 2.322, 13.346)" fill="#263238"/>
      <path id="Path_476" data-name="Path 476" d="M163.853,133.386a.1.1,0,0,1-.038,0,.111.111,0,0,1-.059-.061.127.127,0,0,1,0-.09,4.182,4.182,0,0,0-.192-2.512.121.121,0,0,1,.06-.151.1.1,0,0,1,.137.066,4.294,4.294,0,0,1,.192,2.68A.1.1,0,0,1,163.853,133.386Z" transform="translate(-155.519 -121.046)" fill="#263238"/>
      <path id="Path_477" data-name="Path 477" d="M129.084,133.26h-.022a.12.12,0,0,1-.082-.139c.021-.109.533-2.694,2.5-3.2a.106.106,0,0,1,.127.088.117.117,0,0,1-.08.14c-1.837.477-2.337,3-2.342,3.024A.11.11,0,0,1,129.084,133.26Z" transform="translate(-126.395 -120.508)" fill="#263238"/>
    </g>
    <g id="freepik--character-2--inject-37" transform="translate(70.354 65.684)">
      <path id="Path_478" data-name="Path 478" d="M236.847,389.043l-1.449-.026-.148-3.707,1.451.024Z" transform="translate(-227.347 -329.821)" fill="#ffc3bd"/>
      <path id="Path_479" data-name="Path 479" d="M220.8,405.6l1.577.026a.112.112,0,0,1,.109.113l.095,1.425a.286.286,0,0,1-.07.2.235.235,0,0,1-.178.082c-.569-.021-1.388-.071-2.105-.083-.839-.016-.758.023-1.742,0-.594-.01-.67-.677-.413-.733a5.392,5.392,0,0,0,2.365-.917A.682.682,0,0,1,220.8,405.6Z" transform="translate(-212.762 -346.588)" fill="#263238"/>
      <path id="Path_480" data-name="Path 480" d="M235.26,385.31l.076,1.911,1.451.024-.076-1.91Z" transform="translate(-227.356 -329.821)" opacity="0.2"/>
      <path id="Path_481" data-name="Path 481" d="M226.731,118.627a16.734,16.734,0,0,0-5.667-.3,1.568,1.568,0,0,0-1.336,1.3,56.316,56.316,0,0,0-.721,13.1l7.761.139c.126-1.2-.158-6.771,1.011-12.382a1.662,1.662,0,0,0-.171-1.168A1.4,1.4,0,0,0,226.731,118.627Z" transform="translate(-213.6 -109.096)" fill="#407bff"/>
      <path id="Path_482" data-name="Path 482" d="M239,126.717l.221.639a.179.179,0,0,0,.136.12l.295.049a.206.206,0,0,0,.158-.033l.55-.363-.587-.578Z" transform="translate(-230.506 -115.983)" fill="#263238"/>
      <path id="Path_483" data-name="Path 483" d="M236.241,130.781a.617.617,0,0,0-.344-.05,17.61,17.61,0,0,0-.978,3.427,6.033,6.033,0,0,0,.74,1.941l.631-2.007A28.229,28.229,0,0,1,236.241,130.781Z" transform="translate(-227.069 -119.433)" fill="#263238"/>
      <path id="Path_484" data-name="Path 484" d="M241.527,96c-.282,1.149-.631,3.269.065,4.108a3.539,3.539,0,0,1-2.681,1.194c-1.261-.054-.981-.99-.617-1.465,1.2-.214,1.233-1.181,1.085-2.1Z" transform="translate(-229.652 -90.737)" fill="#ffc3bd"/>
      <path id="Path_485" data-name="Path 485" d="M246.937,118.626a1.455,1.455,0,0,0-.268-.13.1.1,0,0,0-.126.042c-.142.214-.6,1.181-2.613,1.351a4.649,4.649,0,0,1,.836,1.286c.623-.273,2.256-1.115,2.228-2.441A.129.129,0,0,0,246.937,118.626Z" transform="translate(-234.659 -109.321)" fill="#fff"/>
      <path id="Path_486" data-name="Path 486" d="M234.433,117.6a.137.137,0,0,0-.015-.124.111.111,0,0,0-.1-.049,1.53,1.53,0,0,0-.207.036.137.137,0,0,0-.044.023,2.251,2.251,0,0,0-.435,2.5,2.839,2.839,0,0,1,1.419-.988A1.241,1.241,0,0,1,234.433,117.6Z" transform="translate(-225.781 -108.443)" fill="#fff"/>
      <path id="Path_487" data-name="Path 487" d="M248.161,100.08l-1.261,1.026a4.023,4.023,0,0,1,.06.651,1.488,1.488,0,0,0,1.192-1.042A1.89,1.89,0,0,0,248.161,100.08Z" transform="translate(-237.16 -94.109)" opacity="0.2"/>
      <path id="Path_488" data-name="Path 488" d="M239.762,72.7c-.738.264-.851-.377-.7-1.007a2.783,2.783,0,0,0-.087-1.073c-.087-.707.074-1.332,1.271-1.79,1.552-.6,1.209.408,1.271.823s-.583.665-.552,1.092A1.927,1.927,0,0,1,239.762,72.7Z" transform="translate(-230.468 -68.135)" fill="#263238"/>
      <path id="Path_489" data-name="Path 489" d="M243.368,74.433c-.421,1.529-.6,2.448-1.476,3.076-1.315.946-2.892-.172-2.892-1.79,0-1.464.689-3.72,2.189-4.014a1.819,1.819,0,0,1,1.8.68A2.275,2.275,0,0,1,243.368,74.433Z" transform="translate(-230.506 -70.63)" fill="#ffc3bd"/>
      <path id="Path_490" data-name="Path 490" d="M248.375,67.906c-.749-.146-1.635.2-2.383,0-.593-.174-.587-.6-.5-1.042a1.3,1.3,0,0,1,.91-.979c.293-.12.445.283.85-.024a2.692,2.692,0,0,1,1.93,0c.617.26-.088.752.241.979C250.442,67.534,249.794,68.182,248.375,67.906Z" transform="translate(-235.939 -65.684)" fill="#263238"/>
      <path id="Path_491" data-name="Path 491" d="M248.644,69.659a1.169,1.169,0,0,1,1.127-1.639C248.795,68.343,248.644,69.659,248.644,69.659Z" transform="translate(-238.551 -67.615)" fill="#fff" opacity="0.3"/>
      <path id="Path_492" data-name="Path 492" d="M259.99,79c-.631-.109-.594-.894-.287-1.437.293-.521-.139-1.083-.17-1.477s.3-.8.946-.762,1.665.483,1.682,1-.642.455-.539.957A1.414,1.414,0,0,1,259.99,79Z" transform="translate(-247.763 -73.646)" fill="#263238"/>
      <path id="Path_493" data-name="Path 493" d="M262.787,80.9c-.266.521-.82.634-1.537,0A1.757,1.757,0,0,0,262.787,80.9Z" transform="translate(-249.248 -78.258)" fill="#fff" opacity="0.3"/>
      <path id="Path_494" data-name="Path 494" d="M239.412,93.773a2.112,2.112,0,0,0-.248,1.332c.016.323.265.854,1.187,1.007s1.138-.207,1.183-.547a2.758,2.758,0,0,0-.3-1.63C240.938,93.611,239.738,93.392,239.412,93.773Z" transform="translate(-230.637 -88.73)" fill="#263238"/>
      <path id="Path_495" data-name="Path 495" d="M243.706,96.709a.91.91,0,0,0,.763-.111.041.041,0,0,0,0-.049.033.033,0,0,0-.043-.014.87.87,0,0,1-.842.05.033.033,0,0,0-.046.019.04.04,0,0,0,.017.05A1.135,1.135,0,0,0,243.706,96.709Z" transform="translate(-234.331 -91.177)" fill="#ff8b7b"/>
      <path id="Path_496" data-name="Path 496" d="M259.835,92.47a1.351,1.351,0,0,1-.963.476c-.473.016-.593-.488-.353-.92.218-.389.728-.868,1.159-.672A.7.7,0,0,1,259.835,92.47Z" transform="translate(-246.846 -86.86)" fill="#ffc3bd"/>
      <path id="Path_497" data-name="Path 497" d="M223.5,217.644a85.187,85.187,0,0,1,2.05-15.757l-6.05-.108s.337,11.607.429,16.47c.1,5.055,1.531,16.925,1.531,16.925l2.457.042S223.644,223.986,223.5,217.644Z" transform="translate(-214.081 -178.153)" fill="#263238"/>
      <path id="Path_498" data-name="Path 498" d="M242.243,225.821c-1.805,2.6-1.179,7.493-.58,10.949a82.089,82.089,0,0,1,1.233-11.38Z" transform="translate(-232.233 -197.664)" opacity="0.2"/>
      <path id="Path_499" data-name="Path 499" d="M230.187,389.222l2.919.05-.019-1.042-3.037-.111Z" transform="translate(-222.967 -332.143)" fill="#263238"/>
      <path id="Path_500" data-name="Path 500" d="M251.6,85.51c-.028.127-.11.215-.184.2s-.114-.134-.085-.26.109-.215.183-.2S251.627,85.378,251.6,85.51Z" transform="translate(-240.884 -81.851)" fill="#263238"/>
      <path id="Path_501" data-name="Path 501" d="M243.243,83.97c-.027.127-.109.214-.184.2s-.112-.134-.085-.26.11-.214.184-.2S243.27,83.843,243.243,83.97Z" transform="translate(-233.845 -80.578)" fill="#263238"/>
      <path id="Path_502" data-name="Path 502" d="M242.788,86.37a4.32,4.32,0,0,1-.788.825.672.672,0,0,0,.517.2Z" transform="translate(-233.033 -82.779)" fill="#ff5652"/>
      <path id="Path_503" data-name="Path 503" d="M254.067,81.3a.065.065,0,0,0,.035,0,.08.08,0,0,0,.035-.1.677.677,0,0,0-.473-.434.071.071,0,0,0-.079.064.079.079,0,0,0,.011.055.066.066,0,0,0,.044.03h0a.545.545,0,0,1,.375.347A.068.068,0,0,0,254.067,81.3Z" transform="translate(-242.79 -78.147)" fill="#263238"/>
      <path id="Path_504" data-name="Path 504" d="M242.112,79.5a.068.068,0,0,0,.063-.021.52.52,0,0,1,.473-.189.073.073,0,0,0,.082-.061.075.075,0,0,0-.052-.089.662.662,0,0,0-.6.231.082.082,0,0,0,0,.108A.075.075,0,0,0,242.112,79.5Z" transform="translate(-233.085 -76.797)" fill="#263238"/>
      <path id="Path_505" data-name="Path 505" d="M229.781,404.711a.039.039,0,0,0,.024-.031.036.036,0,0,0-.016-.038c-.065-.038-.631-.375-.814-.269a.118.118,0,0,0-.061.1h0a.218.218,0,0,0,.055.186c.158.158.571.1.807.054Zm-.763-.278a1.291,1.291,0,0,1,.646.222c-.323.054-.561.035-.646-.054a.142.142,0,0,1-.036-.123.047.047,0,0,1,.024-.04Z" transform="translate(-222.007 -345.557)" fill="#407bff"/>
      <path id="Path_506" data-name="Path 506" d="M231.738,402.977h0a.036.036,0,0,0,.016-.035,1.115,1.115,0,0,0-.2-.62.236.236,0,0,0-.188-.068h0a.123.123,0,0,0-.134.1c-.035.174.3.531.473.622A.042.042,0,0,0,231.738,402.977Zm-.393-.644a.1.1,0,0,1,.036,0h0a.162.162,0,0,1,.137.05.9.9,0,0,1,.169.495c-.173-.12-.4-.4-.375-.5a.044.044,0,0,1,.033-.042Zm.035-.045Z" transform="translate(-223.964 -343.823)" fill="#407bff"/>
      <path id="Path_507" data-name="Path 507" d="M276.476,389.043l-1.451-.026-.366-3.707,1.452.024Z" transform="translate(-260.543 -329.821)" fill="#ffc3bd"/>
      <path id="Path_508" data-name="Path 508" d="M266.288,405.583l1.577.026a.112.112,0,0,1,.109.113l.095,1.425a.286.286,0,0,1-.07.2.235.235,0,0,1-.178.082c-.569-.021-.746-.071-1.463-.083-.839-.016-.453.023-1.436,0-.594-.01-.669-.674-.413-.733a2.411,2.411,0,0,0,1.41-.917A.486.486,0,0,1,266.288,405.583Z" transform="translate(-251.875 -346.571)" fill="#263238"/>
      <path id="Path_509" data-name="Path 509" d="M274.67,385.31l.188,1.911,1.452.024-.188-1.91Z" transform="translate(-260.552 -329.821)" opacity="0.2"/>
      <path id="Path_510" data-name="Path 510" d="M242.574,217.666c-.6-7.184-.377-12.727-1.317-15.526l-5.128-.09s2.28,11.357,3.135,16.145c.886,4.976,2.5,16.732,2.5,16.732l2.34.036S243.94,223.221,242.574,217.666Z" transform="translate(-228.088 -178.376)" fill="#263238"/>
      <path id="Path_511" data-name="Path 511" d="M268.977,389.222l2.92.05.2-1.042-3.254-.111Z" transform="translate(-255.641 -332.143)" fill="#263238"/>
      <path id="Path_512" data-name="Path 512" d="M274.323,403.3a.034.034,0,0,0,.033-.021.041.041,0,0,0,0-.041c-.047-.061-.473-.6-.67-.564a.117.117,0,0,0-.088.073h0a.231.231,0,0,0,0,.2c.091.208.5.314.732.358Zm-.621-.552c.117,0,.361.253.53.457-.315-.071-.531-.174-.582-.3a.146.146,0,0,1,0-.13.042.042,0,0,1,.035-.028Z" transform="translate(-259.626 -344.169)" fill="#407bff"/>
      <path id="Path_513" data-name="Path 513" d="M276.782,402.311h.009a.037.037,0,0,0,.025-.028,1.239,1.239,0,0,0,.011-.663.248.248,0,0,0-.158-.135h0a.121.121,0,0,0-.158.049c-.088.158.109.618.24.767A.03.03,0,0,0,276.782,402.311Zm-.158-.76h.035a.18.18,0,0,1,.112.1.964.964,0,0,1,0,.535.975.975,0,0,1-.191-.622.054.054,0,0,1,.039-.014Zm.046-.03Z" transform="translate(-262.085 -343.18)" fill="#407bff"/>
      <path id="Path_514" data-name="Path 514" d="M197.352,206.18l-.842,1.358,1.667.561s.631-1.326.057-1.786Z" transform="translate(-194.716 -181.789)" fill="#ff8b7b"/>
      <path id="Path_515" data-name="Path 515" d="M195.874,215.649l.618.087a.529.529,0,0,0,.563-.4l.232-.778L195.62,214l-.158,1.01a.586.586,0,0,0,.082.416A.488.488,0,0,0,195.874,215.649Z" transform="translate(-193.825 -188.251)" fill="#ff8b7b"/>
      <path id="Path_516" data-name="Path 516" d="M203.235,126.335q-.473,1.771-.927,3.554c-.3,1.184-.588,2.38-.863,3.555-.054.253-.158.694-.254.979s-.189.613-.285.911c-.2.594-.394,1.177-.6,1.759l-1.194,3.488L197,139.642c.438-1.123.85-2.269,1.25-3.41.194-.573.385-1.148.566-1.715.09-.285.178-.568.255-.842s.118-.457.188-.806c.251-1.224.522-2.418.774-3.627s.512-2.406.758-3.613Z" transform="translate(-195.128 -115.223)" fill="#407bff"/>
      <g id="Group_95" data-name="Group 95" transform="translate(1.872 10.407)" opacity="0.6">
        <path id="Path_517" data-name="Path 517" d="M203.235,126.335q-.473,1.771-.927,3.554c-.3,1.184-.588,2.38-.863,3.555-.054.253-.158.694-.254.979s-.189.613-.285.911c-.2.594-.394,1.177-.6,1.759l-1.194,3.488L197,139.642c.438-1.123.85-2.269,1.25-3.41.194-.573.385-1.148.566-1.715.09-.285.178-.568.255-.842s.118-.457.188-.806c.251-1.224.522-2.418.774-3.627s.512-2.406.758-3.613Z" transform="translate(-197 -125.63)" fill="#fff"/>
      </g>
      <path id="Path_518" data-name="Path 518" d="M194.453,181.953l-8.841-.677a.556.556,0,0,1-.482-.568v-6.682a.514.514,0,0,1,.142-.365.42.42,0,0,1,.341-.13l8.841.675a.56.56,0,0,1,.482.569v6.682a.514.514,0,0,1-.142.365A.42.42,0,0,1,194.453,181.953Z" transform="translate(-185.13 -154.807)" fill="#263238"/>
      <path id="Path_519" data-name="Path 519" d="M195.423,181.383l-8.841-.677a.556.556,0,0,1-.482-.568v-6.682a.514.514,0,0,1,.142-.365.42.42,0,0,1,.341-.13l8.841.675a.558.558,0,0,1,.483.568v6.684a.515.515,0,0,1-.142.365A.42.42,0,0,1,195.423,181.383Z" transform="translate(-185.947 -154.336)" fill="#407bff"/>
      <path id="Path_520" data-name="Path 520" d="M224.1,117.13c-.725,1.179-3.272,2.972-3.8,5.892a14.914,14.914,0,0,1-.027-5.963,6.592,6.592,0,0,0-2.05.309,1.291,1.291,0,0,0-.856,1.042,51.978,51.978,0,0,0-.579,9.253c.147,5.863-.043,14.93-.043,14.93a63.608,63.608,0,0,0,9.64-.156c-.1-4.479-1.157-12.088-.992-14.076.213-2.557.724-7.548.987-9.625a1.251,1.251,0,0,0-.788-1.368A5.194,5.194,0,0,0,224.1,117.13Z" transform="translate(-211.756 -108.14)" fill="#407bff"/>
      <path id="Path_521" data-name="Path 521" d="M224.1,117.13c-.725,1.179-3.272,2.972-3.8,5.892a14.914,14.914,0,0,1-.027-5.963,6.592,6.592,0,0,0-2.05.309,1.291,1.291,0,0,0-.856,1.042,51.978,51.978,0,0,0-.579,9.253c.147,5.863-.043,14.93-.043,14.93a63.608,63.608,0,0,0,9.64-.156c-.1-4.479-1.157-12.088-.992-14.076.213-2.557.724-7.55.987-9.626a1.232,1.232,0,0,0-.733-1.347A5.119,5.119,0,0,0,224.1,117.13Z" transform="translate(-211.756 -108.14)" fill="#fff" opacity="0.7"/>
      <path id="Path_522" data-name="Path 522" d="M261.355,199.61l-.905,1.307,1.638.656s.691-1.288.14-1.781Z" transform="translate(-248.574 -176.36)" fill="#ff8b7b"/>
      <path id="Path_523" data-name="Path 523" d="M259.408,208.8l.612.123a.524.524,0,0,0,.582-.365l.27-.764-1.638-.656-.213,1a.584.584,0,0,0,.063.424A.489.489,0,0,0,259.408,208.8Z" transform="translate(-247.357 -182.582)" fill="#ff8b7b"/>
      <path id="Path_524" data-name="Path 524" d="M263.977,123.35c.237.571.457,1.115.672,1.679s.429,1.122.631,1.7.383,1.16.557,1.773c.084.309.158.625.225.967.032.174.06.347.082.538a4.442,4.442,0,0,1,.03.644c0,.073-.009.148-.016.22l-.025.174c-.019.118-.041.2-.061.3-.044.174-.091.347-.139.51-.1.319-.2.615-.307.9-.214.582-.443,1.134-.676,1.684s-.464,1.092-.7,1.632-.473,1.073-.724,1.62l-2.02-1.184c.512-1.005,1-2.056,1.444-3.1.221-.521.43-1.05.617-1.562.093-.257.181-.521.252-.757l.049-.174.038-.165c0-.042.021-.1.022-.128v-.047h0v-.1a.824.824,0,0,0-.017-.142c-.014-.1-.035-.215-.06-.333-.05-.236-.118-.49-.2-.745-.158-.521-.342-1.042-.547-1.562s-.423-1.042-.654-1.562-.473-1.042-.721-1.521Z" transform="translate(-249.458 -113.339)" fill="#407bff"/>
      <g id="Group_96" data-name="Group 96" transform="translate(12.042 10.011)" opacity="0.7">
        <path id="Path_525" data-name="Path 525" d="M263.977,123.35c.237.571.457,1.115.672,1.679s.429,1.122.631,1.7.383,1.16.557,1.773c.084.309.158.625.225.967.032.174.06.347.082.538a4.442,4.442,0,0,1,.03.644c0,.073-.009.148-.016.22l-.025.174c-.019.118-.041.2-.061.3-.044.174-.091.347-.139.51-.1.319-.2.615-.307.9-.214.582-.443,1.134-.676,1.684s-.464,1.092-.7,1.632-.473,1.073-.724,1.62l-2.02-1.184c.512-1.005,1-2.056,1.444-3.1.221-.521.43-1.05.617-1.562.093-.257.181-.521.252-.757l.049-.174.038-.165c0-.042.021-.1.022-.128v-.047h0v-.1a.824.824,0,0,0-.017-.142c-.014-.1-.035-.215-.06-.333-.05-.236-.118-.49-.2-.745-.158-.521-.342-1.042-.547-1.562s-.423-1.042-.654-1.562-.473-1.042-.721-1.521Z" transform="translate(-261.5 -123.35)" fill="#fff"/>
      </g>
      <path id="Path_526" data-name="Path 526" d="M255.677,201.14l2.565,2.019s.359,2.71-1.047,2.976S255.426,203.093,255.677,201.14Z" transform="translate(-244.491 -177.624)" fill="#407bff"/>
      <path id="Path_527" data-name="Path 527" d="M255.677,201.14l2.565,2.019s.359,2.71-1.047,2.976S255.426,203.093,255.677,201.14Z" transform="translate(-244.491 -177.624)" fill="#fff" opacity="0.5"/>
      <path id="Path_528" data-name="Path 528" d="M216.625,201.14l-.867,2.019s-.218,2.71.2,2.976S216.622,203.093,216.625,201.14Z" transform="translate(-210.88 -177.624)" fill="#407bff"/>
      <path id="Path_529" data-name="Path 529" d="M216.625,201.14l-.867,2.019s-.218,2.71.2,2.976S216.622,203.093,216.625,201.14Z" transform="translate(-210.88 -177.624)" fill="#fff" opacity="0.5"/>
      <path id="Path_530" data-name="Path 530" d="M239.009,171.981c-.41-5.7-.352-17.635-.315-18.7h.091c-.033,1.066-.09,12.994.315,18.689Z" transform="translate(-230.226 -138.073)" fill="#407bff" opacity="0.5"/>
    </g>
    <g id="freepik--character-3--inject-37" transform="translate(88.069 70.679)">
      <path id="Path_531" data-name="Path 531" d="M311.352,95.749c-1.159.924-2.122,4.547.642,6.01s6.662,1.345,5.484-1.837-.757-5.054-3.538-5.417S311.352,95.749,311.352,95.749Z" transform="translate(-308.194 -94.453)" fill="#263238"/>
      <path id="Path_532" data-name="Path 532" d="M363.873,211.73l.558.214.71,1.184a.973.973,0,0,1,.131.587l-.041.42a.276.276,0,0,1-.251.262l-.741.028a.285.285,0,0,1-.277-.26l-.095-.96S363.507,212.246,363.873,211.73Z" transform="translate(-353.265 -191.37)" fill="#ffb573"/>
      <path id="Path_533" data-name="Path 533" d="M347.991,156.16c-.013.441-.016.913-.013,1.37s.011.922.025,1.389c.03.918.088,1.835.191,2.729l.009.109v.042l.013.054c.017.076.039.163.063.253.047.174.1.368.158.556.118.377.251.759.386,1.139s.278.759.424,1.134.3.752.454,1.082l-1.181.757c-.222-.394-.4-.764-.587-1.142s-.356-.757-.528-1.139-.336-.767-.5-1.167c-.08-.2-.158-.4-.233-.616-.038-.108-.074-.219-.109-.347l-.025-.1-.027-.108c-.008-.036-.016-.087-.024-.13s-.016-.122-.021-.182l.011.109c-.173-.967-.295-1.929-.388-2.891-.046-.481-.085-.96-.118-1.443s-.06-.955-.077-1.458Z" transform="translate(-338.265 -145.447)" fill="#407bff"/>
      <path id="Path_534" data-name="Path 534" d="M347.991,156.16c-.013.441-.016.913-.013,1.37s.011.922.025,1.389c.03.918.088,1.835.191,2.729l.009.109v.042l.013.054c.017.076.039.163.063.253.047.174.1.368.158.556.118.377.251.759.386,1.139s.278.759.424,1.134.3.752.454,1.082l-1.181.757c-.222-.394-.4-.764-.587-1.142s-.356-.757-.528-1.139-.336-.767-.5-1.167c-.08-.2-.158-.4-.233-.616-.038-.108-.074-.219-.109-.347l-.025-.1-.027-.108c-.008-.036-.016-.087-.024-.13s-.016-.122-.021-.182l.011.109c-.173-.967-.295-1.929-.388-2.891-.046-.481-.085-.96-.118-1.443s-.06-.955-.077-1.458Z" transform="translate(-338.265 -145.447)" fill="#fff" opacity="0.5"/>
      <path id="Path_535" data-name="Path 535" d="M329.6,202.06s-.183,11.842-.631,16.635c-.571,6.25-2.1,11.527-2.463,15.845l-1.268-.2s-.082-10.571,1.071-15.625c-1.045-5.359-1.071-16.649-1.071-16.649Z" transform="translate(-320.864 -183.379)" fill="#ffc3bd"/>
      <path id="Path_536" data-name="Path 536" d="M328.35,394.173a2.025,2.025,0,0,0-.588-.323h0a4.54,4.54,0,0,1-1.622-2.569l-.809-.22a.541.541,0,0,0-.651.3.329.329,0,0,0-.032.111,5.186,5.186,0,0,0,.013.627c.024.653.12,2.118.12,2.118h.139a12.308,12.308,0,0,1,.046-1.33c.06-.431.347.078.511.564a1.8,1.8,0,0,0,1.7,1.028C328.235,394.5,328.662,394.456,328.35,394.173Z" transform="translate(-320.36 -339.547)" fill="#263238"/>
      <path id="Path_537" data-name="Path 537" d="M324.845,387.116a8.663,8.663,0,0,1-.175-1.236l1.5.2a5.228,5.228,0,0,0,.263,1.675A7.831,7.831,0,0,1,324.845,387.116Z" transform="translate(-320.382 -335.286)" fill="#263238"/>
      <path id="Path_538" data-name="Path 538" d="M313.432,202.06s-1.8,11.968-2.81,16.772c-1.32,6.267-1.5,16.137-1.5,16.137l-1.19-.127s-1.369-9,.1-16.01c-.11-5.382.842-16.772.842-16.772Z" transform="translate(-305.794 -183.379)" fill="#ffc3bd"/>
      <path id="Path_539" data-name="Path 539" d="M311.745,394.2a1.651,1.651,0,0,0-.539-.323h0a5.146,5.146,0,0,1-.869-2.569l-.768-.22a.628.628,0,0,0-.7.3.429.429,0,0,0-.049.111,5.381,5.381,0,0,0-.082.627,19.182,19.182,0,0,0-.011,2.118h.139l.055-1.33c.02-.451.334.078.424.564a1.078,1.078,0,0,0,1.179,1.028C311.575,394.524,312.01,394.479,311.745,394.2Z" transform="translate(-306.932 -339.569)" fill="#263238"/>
      <path id="Path_540" data-name="Path 540" d="M309.246,387.116c-.05-.451-.066-1.236-.066-1.236l1.706.208a3.977,3.977,0,0,0-.036,1.562C309.99,387.4,309.246,387.116,309.246,387.116Z" transform="translate(-307.335 -335.286)" fill="#263238"/>
      <path id="Path_541" data-name="Path 541" d="M318.136,145.823a60.3,60.3,0,0,1-.449,9.364h-6.113a34.18,34.18,0,0,0-.81-9.234,1.293,1.293,0,0,1,.151-.97,1.074,1.074,0,0,1,.762-.515c.345-.049.74-.092,1.151-.113a16.517,16.517,0,0,1,2.655,0c.574.057,1.189.158,1.657.247A1.286,1.286,0,0,1,318.136,145.823Z" transform="translate(-308.638 -135.648)" fill="#fff"/>
      <path id="Path_542" data-name="Path 542" d="M326.148,126.29c.2.941.427,2.663-.148,3.3a5.019,5.019,0,0,0,2.184,1.717,1.465,1.465,0,0,0,.473-1.717c-.962-.25-.963-1.029-.823-1.76Z" transform="translate(-321.503 -120.763)" fill="#ffc3bd"/>
      <path id="Path_543" data-name="Path 543" d="M331.179,129.89l1,.906a3.122,3.122,0,0,0-.065.521,1.291,1.291,0,0,1-.935-.918A1.546,1.546,0,0,1,331.179,129.89Z" transform="translate(-325.846 -123.738)" opacity="0.2"/>
      <path id="Path_544" data-name="Path 544" d="M320.427,103.686c.385,1.529.52,2.186,1.359,2.844a1.7,1.7,0,0,0,2.838-1.389c.019-1.446-.615-3.707-2.061-4.061S320.041,102.155,320.427,103.686Z" transform="translate(-316.741 -99.885)" fill="#ffc3bd"/>
      <path id="Path_545" data-name="Path 545" d="M319.506,102.588a3.482,3.482,0,0,0,.5-2.337c1.213.109,2.223-.361,2.712.094a1.541,1.541,0,0,0-1.507-1.625A2.328,2.328,0,0,0,319.506,102.588Z" transform="translate(-315.537 -97.979)" fill="#263238"/>
      <path id="Path_546" data-name="Path 546" d="M333.04,115.425c.024.127.1.217.178.2s.115-.128.09-.253-.1-.217-.178-.2S333.015,115.3,333.04,115.425Z" transform="translate(-327.426 -111.573)" fill="#263238"/>
      <path id="Path_547" data-name="Path 547" d="M341.733,113.835c.025.127.106.217.18.2s.115-.128.09-.253-.1-.217-.18-.2S341.709,113.71,341.733,113.835Z" transform="translate(-334.749 -110.259)" fill="#263238"/>
      <path id="Path_548" data-name="Path 548" d="M342.15,112.991l.255-.141S342.311,113.114,342.15,112.991Z" transform="translate(-335.106 -109.656)" fill="#263238"/>
      <path id="Path_549" data-name="Path 549" d="M340.5,116.62a3.528,3.528,0,0,0,.563.724.461.461,0,0,1-.389.165Z" transform="translate(-333.716 -112.772)" fill="#ed893e"/>
      <path id="Path_550" data-name="Path 550" d="M335.009,123.717a.992.992,0,0,0,.194-.021.032.032,0,0,0,.021-.016.038.038,0,0,0,0-.028.036.036,0,0,0-.041-.03.887.887,0,0,1-.809-.247.032.032,0,0,0-.049,0,.043.043,0,0,0,0,.054A.95.95,0,0,0,335.009,123.717Z" transform="translate(-328.511 -118.347)" fill="#263238"/>
      <path id="Path_551" data-name="Path 551" d="M318.37,118.657a1.114,1.114,0,0,0,.662.521c.363.094.516-.259.393-.618-.11-.325-.43-.764-.788-.694A.5.5,0,0,0,318.37,118.657Z" transform="translate(-314.998 -113.795)" fill="#ffc3bd"/>
      <path id="Path_552" data-name="Path 552" d="M330.743,110.907a.065.065,0,0,0,.047-.03.509.509,0,0,1,.434-.24.07.07,0,0,0,.073-.068.079.079,0,0,0-.065-.082.637.637,0,0,0-.552.3.077.077,0,0,0,.063.122Z" transform="translate(-325.433 -107.704)" fill="#263238"/>
      <path id="Path_553" data-name="Path 553" d="M341.152,109.168a.068.068,0,0,0,.036-.038.081.081,0,0,0,0-.057.072.072,0,0,0-.036-.042.62.62,0,0,0-.623,0,.075.075,0,0,0-.03.047.081.081,0,0,0,.01.057.067.067,0,0,0,.095.026.493.493,0,0,1,.494,0A.059.059,0,0,0,341.152,109.168Z" transform="translate(-333.716 -106.431)" fill="#263238"/>
      <path id="Path_554" data-name="Path 554" d="M333.45,114.581l.255-.141S333.611,114.711,333.45,114.581Z" transform="translate(-327.778 -110.97)" fill="#263238"/>
      <path id="Path_555" data-name="Path 555" d="M310.226,207l.121,18.411a26.965,26.965,0,0,1-8.112-.392c-.169-6.908-1.4-14.52,1.878-18.019Z" transform="translate(-301.178 -187.461)" fill="#263238"/>
      <path id="Path_556" data-name="Path 556" d="M331.39,241.607l-.64-6.059,1.537-1.748Z" transform="translate(-325.504 -209.608)" opacity="0.2"/>
      <path id="Path_557" data-name="Path 557" d="M317.23,146.517c-.077-1.616-.315-2.257-1.28-2.451s-1.872-.306-1.872-.306a3.062,3.062,0,0,1,1.214,2.117,3.225,3.225,0,0,1-.656,2.4c-.65-1.33-3.114-3.413-2.523-4.5a6.438,6.438,0,0,0-1.72.135c-.946.2-1.224.922-.99,2.526a45.382,45.382,0,0,1,.142,9.073,49.221,49.221,0,0,0,4.691,2.175,3.127,3.127,0,0,0,2.272-1.934S317.315,148.142,317.23,146.517Z" transform="translate(-307.456 -135.2)" fill="#407bff"/>
      <path id="Path_558" data-name="Path 558" d="M317.23,146.517c-.077-1.616-.315-2.257-1.28-2.451s-1.872-.306-1.872-.306a3.062,3.062,0,0,1,1.214,2.117,3.225,3.225,0,0,1-.656,2.4c-.65-1.33-3.114-3.413-2.523-4.5a6.438,6.438,0,0,0-1.72.135c-.946.2-1.224.922-.99,2.526a45.382,45.382,0,0,1,.142,9.073,49.221,49.221,0,0,0,4.691,2.175,3.127,3.127,0,0,0,2.272-1.934S317.315,148.142,317.23,146.517Z" transform="translate(-307.456 -135.2)" fill="#fff" opacity="0.6"/>
      <path id="Path_559" data-name="Path 559" d="M321.383,159.471c-.656-1.054-1.148-2.6-.766-3.387a.763.763,0,0,1,.738-.444.867.867,0,0,1,.676.33c.426.512.574,1.576.453,3.25l-.158-.014c.117-1.6-.022-2.649-.41-3.116a.705.705,0,0,0-.56-.273.609.609,0,0,0-.594.347c-.3.628.028,2.036.757,3.2Z" transform="translate(-316.855 -145.015)" fill="#263238"/>
      <ellipse id="Ellipse_15" data-name="Ellipse 15" cx="0.241" cy="0.387" rx="0.241" ry="0.387" transform="translate(4.42 13.991)" fill="#263238"/>
      <path id="Path_560" data-name="Path 560" d="M331.772,174.827c0,.214-.109.387-.241.387s-.241-.174-.241-.387.109-.387.241-.387S331.772,174.614,331.772,174.827Z" transform="translate(-325.958 -160.554)" fill="#263238"/>
      <path id="Path_561" data-name="Path 561" d="M349.876,156.578a.424.424,0,0,1-.365.464.409.409,0,0,1-.424-.4.426.426,0,0,1,.357-.471A.416.416,0,0,1,349.876,156.578Z" transform="translate(-340.948 -145.457)" fill="#263238"/>
      <path id="Path_562" data-name="Path 562" d="M323.914,145.588a.081.081,0,0,1-.074-.057,5.384,5.384,0,0,1-.185-2.2.09.09,0,0,1,.029-.06.074.074,0,0,1,.059-.018.087.087,0,0,1,.071.1,5.406,5.406,0,0,0,.177,2.115.1.1,0,0,1,0,.068.083.083,0,0,1-.044.047A.066.066,0,0,1,323.914,145.588Z" transform="translate(-319.494 -134.784)" fill="#263238"/>
      <path id="Path_563" data-name="Path 563" d="M343.841,146.214a.084.084,0,0,1-.08-.083c0-.019-.112-1.962-1.492-2.319a.089.089,0,0,1-.06-.106.082.082,0,0,1,.1-.066c1.5.389,1.613,2.462,1.615,2.483a.092.092,0,0,1-.02.064.076.076,0,0,1-.055.028Z" transform="translate(-335.154 -135.098)" fill="#263238"/>
      <path id="Path_564" data-name="Path 564" d="M327.192,167.75l1.38-5.786a.4.4,0,0,1,.374-.3l3.757.154a.222.222,0,0,1,.188.1.273.273,0,0,1,.035.227l-1.386,5.786a.394.394,0,0,1-.374.3l-3.756-.155a.223.223,0,0,1-.184-.1A.273.273,0,0,1,327.192,167.75Z" transform="translate(-322.498 -149.992)" fill="#263238"/>
      <path id="Path_565" data-name="Path 565" d="M327.439,168.34l1.386-5.786a.393.393,0,0,1,.374-.3l3.756.155a.22.22,0,0,1,.189.1.271.271,0,0,1,.034.228l-1.384,5.788a.4.4,0,0,1-.375.3l-3.756-.155a.22.22,0,0,1-.189-.1A.271.271,0,0,1,327.439,168.34Z" transform="translate(-322.705 -150.48)" fill="#407bff"/>
      <path id="Path_566" data-name="Path 566" d="M324.37,176.642l.066-.648.9-1.021a.791.791,0,0,1,.492-.266l.382-.049a.265.265,0,0,1,.287.212l.186.792a.311.311,0,0,1-.17.347l-.831.309S324.908,176.923,324.37,176.642Z" transform="translate(-320.13 -160.733)" fill="#ffb573"/>
      <path id="Path_567" data-name="Path 567" d="M301.278,149c-.057.082-.129.193-.194.292l-.2.314q-.2.318-.378.644-.363.646-.664,1.33a9.124,9.124,0,0,0-.473,1.351,3.96,3.96,0,0,0-.147,1.245l-.355-.644h0c-.1-.069-.1-.045-.074-.04a.727.727,0,0,0,.121.031,2.408,2.408,0,0,0,.367.042,6.419,6.419,0,0,0,.85-.03A8,8,0,0,0,301,153.4a5.566,5.566,0,0,0,.817-.234l.523,1.389a6.84,6.84,0,0,1-.99.4,9.2,9.2,0,0,1-1,.264,7.925,7.925,0,0,1-1.041.146,4.021,4.021,0,0,1-.579,0,2.035,2.035,0,0,1-.347-.054,1.314,1.314,0,0,1-.511-.238h0l-.3-.215-.057-.427a5.971,5.971,0,0,1,.093-1.983,11.4,11.4,0,0,1,.5-1.717q.3-.805.676-1.573.184-.38.383-.752l.2-.37c.071-.127.136-.24.222-.38Z" transform="translate(-297.477 -138.423)" fill="#407bff"/>
      <path id="Path_568" data-name="Path 568" d="M301.278,149c-.057.082-.129.193-.194.292l-.2.314q-.2.318-.378.644-.363.646-.664,1.33a9.124,9.124,0,0,0-.473,1.351,3.96,3.96,0,0,0-.147,1.245l-.355-.644h0c-.1-.069-.1-.045-.074-.04a.727.727,0,0,0,.121.031,2.408,2.408,0,0,0,.367.042,6.419,6.419,0,0,0,.85-.03A8,8,0,0,0,301,153.4a5.566,5.566,0,0,0,.817-.234l.523,1.389a6.84,6.84,0,0,1-.99.4,9.2,9.2,0,0,1-1,.264,7.925,7.925,0,0,1-1.041.146,4.021,4.021,0,0,1-.579,0,2.035,2.035,0,0,1-.347-.054,1.314,1.314,0,0,1-.511-.238h0l-.3-.215-.057-.427a5.971,5.971,0,0,1,.093-1.983,11.4,11.4,0,0,1,.5-1.717q.3-.805.676-1.573.184-.38.383-.752l.2-.37c.071-.127.136-.24.222-.38Z" transform="translate(-297.477 -138.423)" fill="#fff" opacity="0.6"/>
    </g>
  </g>
</svg>
